solid OpenSCAD_Model
  facet normal -0.98768 -0.156486 0
    outer loop
      vertex 27.4808 0 0
      vertex 27.3584 0.772542 3
      vertex 27.3584 0.772542 0
    endloop
  endfacet
  facet normal -0.98768 -0.156486 0
    outer loop
      vertex 27.3584 0.772542 3
      vertex 27.4808 0 0
      vertex 27.4808 0 3
    endloop
  endfacet
  facet normal 0.9877 -0.156361 0
    outer loop
      vertex 22.4808 0 3
      vertex 22.6031 0.772542 0
      vertex 22.6031 0.772542 3
    endloop
  endfacet
  facet normal 0.9877 -0.156361 0
    outer loop
      vertex 22.6031 0.772542 0
      vertex 22.4808 0 3
      vertex 22.4808 0 0
    endloop
  endfacet
  facet normal -0.156444 -0.987687 0
    outer loop
      vertex 24.9808 2.5 0
      vertex 25.7533 2.37764 3
      vertex 24.9808 2.5 3
    endloop
  endfacet
  facet normal -0.156444 -0.987687 -0
    outer loop
      vertex 25.7533 2.37764 3
      vertex 24.9808 2.5 0
      vertex 25.7533 2.37764 0
    endloop
  endfacet
  facet normal -0.707094 -0.70712 0
    outer loop
      vertex 27.0033 1.46946 0
      vertex 26.4502 2.02254 3
      vertex 26.4502 2.02254 0
    endloop
  endfacet
  facet normal -0.707094 -0.70712 0
    outer loop
      vertex 26.4502 2.02254 3
      vertex 27.0033 1.46946 0
      vertex 27.0033 1.46946 3
    endloop
  endfacet
  facet normal -0.891005 -0.453993 0
    outer loop
      vertex 27.3584 0.772542 0
      vertex 27.0033 1.46946 3
      vertex 27.0033 1.46946 0
    endloop
  endfacet
  facet normal -0.891005 -0.453993 0
    outer loop
      vertex 27.0033 1.46946 3
      vertex 27.3584 0.772542 0
      vertex 27.3584 0.772542 3
    endloop
  endfacet
  facet normal -0.454002 -0.891 0
    outer loop
      vertex 25.7533 2.37764 0
      vertex 26.4502 2.02254 3
      vertex 25.7533 2.37764 3
    endloop
  endfacet
  facet normal -0.454002 -0.891 -0
    outer loop
      vertex 26.4502 2.02254 3
      vertex 25.7533 2.37764 0
      vertex 26.4502 2.02254 0
    endloop
  endfacet
  facet normal 0.454002 -0.891 0
    outer loop
      vertex 23.5113 2.02254 0
      vertex 24.2082 2.37764 3
      vertex 23.5113 2.02254 3
    endloop
  endfacet
  facet normal 0.454002 -0.891 0
    outer loop
      vertex 24.2082 2.37764 3
      vertex 23.5113 2.02254 0
      vertex 24.2082 2.37764 0
    endloop
  endfacet
  facet normal 0.156425 -0.98769 0
    outer loop
      vertex 24.2082 2.37764 0
      vertex 24.9808 2.5 3
      vertex 24.2082 2.37764 3
    endloop
  endfacet
  facet normal 0.156425 -0.98769 0
    outer loop
      vertex 24.9808 2.5 3
      vertex 24.2082 2.37764 0
      vertex 24.9808 2.5 0
    endloop
  endfacet
  facet normal -0.891005 0.453993 0
    outer loop
      vertex 27.0033 -1.46946 0
      vertex 27.3584 -0.772542 3
      vertex 27.3584 -0.772542 0
    endloop
  endfacet
  facet normal -0.891005 0.453993 0
    outer loop
      vertex 27.3584 -0.772542 3
      vertex 27.0033 -1.46946 0
      vertex 27.0033 -1.46946 3
    endloop
  endfacet
  facet normal 0.454002 0.891 -0
    outer loop
      vertex 24.2082 -2.37764 0
      vertex 23.5113 -2.02254 3
      vertex 24.2082 -2.37764 3
    endloop
  endfacet
  facet normal 0.454002 0.891 0
    outer loop
      vertex 23.5113 -2.02254 3
      vertex 24.2082 -2.37764 0
      vertex 23.5113 -2.02254 0
    endloop
  endfacet
  facet normal 0.9877 0.156361 0
    outer loop
      vertex 22.6031 -0.772542 3
      vertex 22.4808 0 0
      vertex 22.4808 0 3
    endloop
  endfacet
  facet normal 0.9877 0.156361 0
    outer loop
      vertex 22.4808 0 0
      vertex 22.6031 -0.772542 3
      vertex 22.6031 -0.772542 0
    endloop
  endfacet
  facet normal 0.707094 -0.70712 0
    outer loop
      vertex 22.9582 1.46946 3
      vertex 23.5113 2.02254 0
      vertex 23.5113 2.02254 3
    endloop
  endfacet
  facet normal 0.707094 -0.70712 0
    outer loop
      vertex 23.5113 2.02254 0
      vertex 22.9582 1.46946 3
      vertex 22.9582 1.46946 0
    endloop
  endfacet
  facet normal 0.891005 -0.453993 0
    outer loop
      vertex 22.6031 0.772542 3
      vertex 22.9582 1.46946 0
      vertex 22.9582 1.46946 3
    endloop
  endfacet
  facet normal 0.891005 -0.453993 0
    outer loop
      vertex 22.9582 1.46946 0
      vertex 22.6031 0.772542 3
      vertex 22.6031 0.772542 0
    endloop
  endfacet
  facet normal -0.98768 0.156486 0
    outer loop
      vertex 27.3584 -0.772542 0
      vertex 27.4808 0 3
      vertex 27.4808 0 0
    endloop
  endfacet
  facet normal -0.98768 0.156486 0
    outer loop
      vertex 27.4808 0 3
      vertex 27.3584 -0.772542 0
      vertex 27.3584 -0.772542 3
    endloop
  endfacet
  facet normal -0.156444 0.987687 0
    outer loop
      vertex 25.7533 -2.37764 0
      vertex 24.9808 -2.5 3
      vertex 25.7533 -2.37764 3
    endloop
  endfacet
  facet normal -0.156444 0.987687 0
    outer loop
      vertex 24.9808 -2.5 3
      vertex 25.7533 -2.37764 0
      vertex 24.9808 -2.5 0
    endloop
  endfacet
  facet normal -0.707094 0.70712 0
    outer loop
      vertex 26.4502 -2.02254 0
      vertex 27.0033 -1.46946 3
      vertex 27.0033 -1.46946 0
    endloop
  endfacet
  facet normal -0.707094 0.70712 0
    outer loop
      vertex 27.0033 -1.46946 3
      vertex 26.4502 -2.02254 0
      vertex 26.4502 -2.02254 3
    endloop
  endfacet
  facet normal 0.156425 0.98769 -0
    outer loop
      vertex 24.9808 -2.5 0
      vertex 24.2082 -2.37764 3
      vertex 24.9808 -2.5 3
    endloop
  endfacet
  facet normal 0.156425 0.98769 0
    outer loop
      vertex 24.2082 -2.37764 3
      vertex 24.9808 -2.5 0
      vertex 24.2082 -2.37764 0
    endloop
  endfacet
  facet normal 0.891005 0.453993 0
    outer loop
      vertex 22.9582 -1.46946 3
      vertex 22.6031 -0.772542 0
      vertex 22.6031 -0.772542 3
    endloop
  endfacet
  facet normal 0.891005 0.453993 0
    outer loop
      vertex 22.6031 -0.772542 0
      vertex 22.9582 -1.46946 3
      vertex 22.9582 -1.46946 0
    endloop
  endfacet
  facet normal -0.454002 0.891 0
    outer loop
      vertex 26.4502 -2.02254 0
      vertex 25.7533 -2.37764 3
      vertex 26.4502 -2.02254 3
    endloop
  endfacet
  facet normal -0.454002 0.891 0
    outer loop
      vertex 25.7533 -2.37764 3
      vertex 26.4502 -2.02254 0
      vertex 25.7533 -2.37764 0
    endloop
  endfacet
  facet normal 0.707094 0.70712 0
    outer loop
      vertex 23.5113 -2.02254 3
      vertex 22.9582 -1.46946 0
      vertex 22.9582 -1.46946 3
    endloop
  endfacet
  facet normal 0.707094 0.70712 0
    outer loop
      vertex 22.9582 -1.46946 0
      vertex 23.5113 -2.02254 3
      vertex 23.5113 -2.02254 0
    endloop
  endfacet
  facet normal 0.629331 -0.777138 0
    outer loop
      vertex -14.3482 23.3068 0
      vertex -13.7404 23.799 3
      vertex -14.3482 23.3068 3
    endloop
  endfacet
  facet normal 0.629331 -0.777138 0
    outer loop
      vertex -13.7404 23.799 3
      vertex -14.3482 23.3068 0
      vertex -13.7404 23.799 0
    endloop
  endfacet
  facet normal -0.777075 -0.629408 0
    outer loop
      vertex -10.3253 22.884 0
      vertex -10.8176 23.4918 3
      vertex -10.8176 23.4918 0
    endloop
  endfacet
  facet normal -0.777075 -0.629408 0
    outer loop
      vertex -10.8176 23.4918 3
      vertex -10.3253 22.884 0
      vertex -10.3253 22.884 3
    endloop
  endfacet
  facet normal 0.998632 0.0522904 0
    outer loop
      vertex -14.9358 21.1142 3
      vertex -14.9767 21.8953 0
      vertex -14.9767 21.8953 3
    endloop
  endfacet
  facet normal 0.998632 0.0522904 0
    outer loop
      vertex -14.9767 21.8953 0
      vertex -14.9358 21.1142 3
      vertex -14.9358 21.1142 0
    endloop
  endfacet
  facet normal 0.838677 -0.544629 0
    outer loop
      vertex -14.7742 22.6508 3
      vertex -14.3482 23.3068 0
      vertex -14.3482 23.3068 3
    endloop
  endfacet
  facet normal 0.838677 -0.544629 0
    outer loop
      vertex -14.3482 23.3068 0
      vertex -14.7742 22.6508 3
      vertex -14.7742 22.6508 0
    endloop
  endfacet
  facet normal 0.933537 0.358482 0
    outer loop
      vertex -14.6554 20.384 3
      vertex -14.9358 21.1142 0
      vertex -14.9358 21.1142 3
    endloop
  endfacet
  facet normal 0.933537 0.358482 0
    outer loop
      vertex -14.9358 21.1142 0
      vertex -14.6554 20.384 3
      vertex -14.6554 20.384 0
    endloop
  endfacet
  facet normal -0.0522904 0.998632 0
    outer loop
      vertex -11.9706 19.1886 0
      vertex -12.7517 19.1477 3
      vertex -11.9706 19.1886 3
    endloop
  endfacet
  facet normal -0.0522904 0.998632 0
    outer loop
      vertex -12.7517 19.1477 3
      vertex -11.9706 19.1886 0
      vertex -12.7517 19.1477 0
    endloop
  endfacet
  facet normal 0.544629 0.838677 -0
    outer loop
      vertex -13.5072 19.3501 0
      vertex -14.1632 19.7761 3
      vertex -13.5072 19.3501 3
    endloop
  endfacet
  facet normal 0.544629 0.838677 0
    outer loop
      vertex -14.1632 19.7761 3
      vertex -13.5072 19.3501 0
      vertex -14.1632 19.7761 0
    endloop
  endfacet
  facet normal 0.965905 -0.258896 0
    outer loop
      vertex -14.9767 21.8953 3
      vertex -14.7742 22.6508 0
      vertex -14.7742 22.6508 3
    endloop
  endfacet
  facet normal 0.965905 -0.258896 0
    outer loop
      vertex -14.7742 22.6508 0
      vertex -14.9767 21.8953 3
      vertex -14.9767 21.8953 0
    endloop
  endfacet
  facet normal 0.777188 0.629268 0
    outer loop
      vertex -14.1632 19.7761 3
      vertex -14.6554 20.384 0
      vertex -14.6554 20.384 3
    endloop
  endfacet
  facet normal 0.777188 0.629268 0
    outer loop
      vertex -14.6554 20.384 0
      vertex -14.1632 19.7761 3
      vertex -14.1632 19.7761 0
    endloop
  endfacet
  facet normal -0.358371 0.933579 0
    outer loop
      vertex -11.2404 19.4689 0
      vertex -11.9706 19.1886 3
      vertex -11.2404 19.4689 3
    endloop
  endfacet
  facet normal -0.358371 0.933579 0
    outer loop
      vertex -11.9706 19.1886 3
      vertex -11.2404 19.4689 0
      vertex -11.9706 19.1886 0
    endloop
  endfacet
  facet normal 0.258777 0.965937 -0
    outer loop
      vertex -12.7517 19.1477 0
      vertex -13.5072 19.3501 3
      vertex -12.7517 19.1477 3
    endloop
  endfacet
  facet normal 0.258777 0.965937 0
    outer loop
      vertex -13.5072 19.3501 3
      vertex -12.7517 19.1477 0
      vertex -13.5072 19.3501 0
    endloop
  endfacet
  facet normal 0.358371 -0.933579 0
    outer loop
      vertex -13.7404 23.799 0
      vertex -13.0102 24.0793 3
      vertex -13.7404 23.799 3
    endloop
  endfacet
  facet normal 0.358371 -0.933579 0
    outer loop
      vertex -13.0102 24.0793 3
      vertex -13.7404 23.799 0
      vertex -13.0102 24.0793 0
    endloop
  endfacet
  facet normal -0.258864 -0.965914 0
    outer loop
      vertex -12.2291 24.1203 0
      vertex -11.4735 23.9178 3
      vertex -12.2291 24.1203 3
    endloop
  endfacet
  facet normal -0.258864 -0.965914 -0
    outer loop
      vertex -11.4735 23.9178 3
      vertex -12.2291 24.1203 0
      vertex -11.4735 23.9178 0
    endloop
  endfacet
  facet normal -0.544687 -0.838639 0
    outer loop
      vertex -11.4735 23.9178 0
      vertex -10.8176 23.4918 3
      vertex -11.4735 23.9178 3
    endloop
  endfacet
  facet normal -0.544687 -0.838639 -0
    outer loop
      vertex -10.8176 23.4918 3
      vertex -11.4735 23.9178 0
      vertex -10.8176 23.4918 0
    endloop
  endfacet
  facet normal 0.0524179 -0.998625 0
    outer loop
      vertex -13.0102 24.0793 0
      vertex -12.2291 24.1203 3
      vertex -13.0102 24.0793 3
    endloop
  endfacet
  facet normal 0.0524179 -0.998625 0
    outer loop
      vertex -12.2291 24.1203 3
      vertex -13.0102 24.0793 0
      vertex -12.2291 24.1203 0
    endloop
  endfacet
  facet normal -0.998632 -0.0522904 0
    outer loop
      vertex -10.0041 21.3727 0
      vertex -10.045 22.1538 3
      vertex -10.045 22.1538 0
    endloop
  endfacet
  facet normal -0.998632 -0.0522904 0
    outer loop
      vertex -10.045 22.1538 3
      vertex -10.0041 21.3727 0
      vertex -10.0041 21.3727 3
    endloop
  endfacet
  facet normal -0.965946 0.258745 0
    outer loop
      vertex -10.2065 20.6171 0
      vertex -10.0041 21.3727 3
      vertex -10.0041 21.3727 0
    endloop
  endfacet
  facet normal -0.965946 0.258745 0
    outer loop
      vertex -10.0041 21.3727 3
      vertex -10.2065 20.6171 0
      vertex -10.2065 20.6171 3
    endloop
  endfacet
  facet normal -0.933579 -0.358371 0
    outer loop
      vertex -10.045 22.1538 0
      vertex -10.3253 22.884 3
      vertex -10.3253 22.884 0
    endloop
  endfacet
  facet normal -0.933579 -0.358371 0
    outer loop
      vertex -10.3253 22.884 3
      vertex -10.045 22.1538 0
      vertex -10.045 22.1538 3
    endloop
  endfacet
  facet normal -0.838677 0.544629 0
    outer loop
      vertex -10.6325 19.9611 0
      vertex -10.2065 20.6171 3
      vertex -10.2065 20.6171 0
    endloop
  endfacet
  facet normal -0.838677 0.544629 0
    outer loop
      vertex -10.2065 20.6171 3
      vertex -10.6325 19.9611 0
      vertex -10.6325 19.9611 3
    endloop
  endfacet
  facet normal -0.629268 0.777188 0
    outer loop
      vertex -10.6325 19.9611 0
      vertex -11.2404 19.4689 3
      vertex -10.6325 19.9611 3
    endloop
  endfacet
  facet normal -0.629268 0.777188 0
    outer loop
      vertex -11.2404 19.4689 3
      vertex -10.6325 19.9611 0
      vertex -11.2404 19.4689 0
    endloop
  endfacet
  facet normal 0.358371 0.933579 -0
    outer loop
      vertex -13.0102 -24.0793 0
      vertex -13.7404 -23.799 3
      vertex -13.0102 -24.0793 3
    endloop
  endfacet
  facet normal 0.358371 0.933579 0
    outer loop
      vertex -13.7404 -23.799 3
      vertex -13.0102 -24.0793 0
      vertex -13.7404 -23.799 0
    endloop
  endfacet
  facet normal -0.629268 -0.777188 0
    outer loop
      vertex -11.2404 -19.4689 0
      vertex -10.6325 -19.9611 3
      vertex -11.2404 -19.4689 3
    endloop
  endfacet
  facet normal -0.629268 -0.777188 -0
    outer loop
      vertex -10.6325 -19.9611 3
      vertex -11.2404 -19.4689 0
      vertex -10.6325 -19.9611 0
    endloop
  endfacet
  facet normal 0.933537 -0.358482 0
    outer loop
      vertex -14.9358 -21.1142 3
      vertex -14.6554 -20.384 0
      vertex -14.6554 -20.384 3
    endloop
  endfacet
  facet normal 0.933537 -0.358482 0
    outer loop
      vertex -14.6554 -20.384 0
      vertex -14.9358 -21.1142 3
      vertex -14.9358 -21.1142 0
    endloop
  endfacet
  facet normal -0.544687 0.838639 0
    outer loop
      vertex -10.8176 -23.4918 0
      vertex -11.4735 -23.9178 3
      vertex -10.8176 -23.4918 3
    endloop
  endfacet
  facet normal -0.544687 0.838639 0
    outer loop
      vertex -11.4735 -23.9178 3
      vertex -10.8176 -23.4918 0
      vertex -11.4735 -23.9178 0
    endloop
  endfacet
  facet normal 0.0524179 0.998625 -0
    outer loop
      vertex -12.2291 -24.1203 0
      vertex -13.0102 -24.0793 3
      vertex -12.2291 -24.1203 3
    endloop
  endfacet
  facet normal 0.0524179 0.998625 0
    outer loop
      vertex -13.0102 -24.0793 3
      vertex -12.2291 -24.1203 0
      vertex -13.0102 -24.0793 0
    endloop
  endfacet
  facet normal -0.777075 0.629408 0
    outer loop
      vertex -10.8176 -23.4918 0
      vertex -10.3253 -22.884 3
      vertex -10.3253 -22.884 0
    endloop
  endfacet
  facet normal -0.777075 0.629408 0
    outer loop
      vertex -10.3253 -22.884 3
      vertex -10.8176 -23.4918 0
      vertex -10.8176 -23.4918 3
    endloop
  endfacet
  facet normal -0.965946 -0.258745 0
    outer loop
      vertex -10.0041 -21.3727 0
      vertex -10.2065 -20.6171 3
      vertex -10.2065 -20.6171 0
    endloop
  endfacet
  facet normal -0.965946 -0.258745 0
    outer loop
      vertex -10.2065 -20.6171 3
      vertex -10.0041 -21.3727 0
      vertex -10.0041 -21.3727 3
    endloop
  endfacet
  facet normal -0.838677 -0.544629 0
    outer loop
      vertex -10.2065 -20.6171 0
      vertex -10.6325 -19.9611 3
      vertex -10.6325 -19.9611 0
    endloop
  endfacet
  facet normal -0.838677 -0.544629 0
    outer loop
      vertex -10.6325 -19.9611 3
      vertex -10.2065 -20.6171 0
      vertex -10.2065 -20.6171 3
    endloop
  endfacet
  facet normal -0.998632 0.0522904 0
    outer loop
      vertex -10.045 -22.1538 0
      vertex -10.0041 -21.3727 3
      vertex -10.0041 -21.3727 0
    endloop
  endfacet
  facet normal -0.998632 0.0522904 0
    outer loop
      vertex -10.0041 -21.3727 3
      vertex -10.045 -22.1538 0
      vertex -10.045 -22.1538 3
    endloop
  endfacet
  facet normal 0.629331 0.777138 -0
    outer loop
      vertex -13.7404 -23.799 0
      vertex -14.3482 -23.3068 3
      vertex -13.7404 -23.799 3
    endloop
  endfacet
  facet normal 0.629331 0.777138 0
    outer loop
      vertex -14.3482 -23.3068 3
      vertex -13.7404 -23.799 0
      vertex -14.3482 -23.3068 0
    endloop
  endfacet
  facet normal -0.258864 0.965914 0
    outer loop
      vertex -11.4735 -23.9178 0
      vertex -12.2291 -24.1203 3
      vertex -11.4735 -23.9178 3
    endloop
  endfacet
  facet normal -0.258864 0.965914 0
    outer loop
      vertex -12.2291 -24.1203 3
      vertex -11.4735 -23.9178 0
      vertex -12.2291 -24.1203 0
    endloop
  endfacet
  facet normal -0.933579 0.358371 0
    outer loop
      vertex -10.3253 -22.884 0
      vertex -10.045 -22.1538 3
      vertex -10.045 -22.1538 0
    endloop
  endfacet
  facet normal -0.933579 0.358371 0
    outer loop
      vertex -10.045 -22.1538 3
      vertex -10.3253 -22.884 0
      vertex -10.3253 -22.884 3
    endloop
  endfacet
  facet normal 0.838677 0.544629 0
    outer loop
      vertex -14.3482 -23.3068 3
      vertex -14.7742 -22.6508 0
      vertex -14.7742 -22.6508 3
    endloop
  endfacet
  facet normal 0.838677 0.544629 0
    outer loop
      vertex -14.7742 -22.6508 0
      vertex -14.3482 -23.3068 3
      vertex -14.3482 -23.3068 0
    endloop
  endfacet
  facet normal 0.544629 -0.838677 0
    outer loop
      vertex -14.1632 -19.7761 0
      vertex -13.5072 -19.3501 3
      vertex -14.1632 -19.7761 3
    endloop
  endfacet
  facet normal 0.544629 -0.838677 0
    outer loop
      vertex -13.5072 -19.3501 3
      vertex -14.1632 -19.7761 0
      vertex -13.5072 -19.3501 0
    endloop
  endfacet
  facet normal -0.358371 -0.933579 0
    outer loop
      vertex -11.9706 -19.1886 0
      vertex -11.2404 -19.4689 3
      vertex -11.9706 -19.1886 3
    endloop
  endfacet
  facet normal -0.358371 -0.933579 -0
    outer loop
      vertex -11.2404 -19.4689 3
      vertex -11.9706 -19.1886 0
      vertex -11.2404 -19.4689 0
    endloop
  endfacet
  facet normal 0.258777 -0.965937 0
    outer loop
      vertex -13.5072 -19.3501 0
      vertex -12.7517 -19.1477 3
      vertex -13.5072 -19.3501 3
    endloop
  endfacet
  facet normal 0.258777 -0.965937 0
    outer loop
      vertex -12.7517 -19.1477 3
      vertex -13.5072 -19.3501 0
      vertex -12.7517 -19.1477 0
    endloop
  endfacet
  facet normal 0.965905 0.258896 0
    outer loop
      vertex -14.7742 -22.6508 3
      vertex -14.9767 -21.8953 0
      vertex -14.9767 -21.8953 3
    endloop
  endfacet
  facet normal 0.965905 0.258896 0
    outer loop
      vertex -14.9767 -21.8953 0
      vertex -14.7742 -22.6508 3
      vertex -14.7742 -22.6508 0
    endloop
  endfacet
  facet normal 0.998632 -0.0522904 0
    outer loop
      vertex -14.9767 -21.8953 3
      vertex -14.9358 -21.1142 0
      vertex -14.9358 -21.1142 3
    endloop
  endfacet
  facet normal 0.998632 -0.0522904 0
    outer loop
      vertex -14.9358 -21.1142 0
      vertex -14.9767 -21.8953 3
      vertex -14.9767 -21.8953 0
    endloop
  endfacet
  facet normal 0.777188 -0.629268 0
    outer loop
      vertex -14.6554 -20.384 3
      vertex -14.1632 -19.7761 0
      vertex -14.1632 -19.7761 3
    endloop
  endfacet
  facet normal 0.777188 -0.629268 0
    outer loop
      vertex -14.1632 -19.7761 0
      vertex -14.6554 -20.384 3
      vertex -14.6554 -20.384 0
    endloop
  endfacet
  facet normal -0.0522904 -0.998632 0
    outer loop
      vertex -12.7517 -19.1477 0
      vertex -11.9706 -19.1886 3
      vertex -12.7517 -19.1477 3
    endloop
  endfacet
  facet normal -0.0522904 -0.998632 -0
    outer loop
      vertex -11.9706 -19.1886 3
      vertex -12.7517 -19.1477 0
      vertex -11.9706 -19.1886 0
    endloop
  endfacet
  facet normal 0 -1 0
    outer loop
      vertex -30 -51.9615 0
      vertex 30 -51.9615 40
      vertex -30 -51.9615 40
    endloop
  endfacet
  facet normal 0 -1 -0
    outer loop
      vertex 30 -51.9615 40
      vertex -30 -51.9615 0
      vertex 30 -51.9615 0
    endloop
  endfacet
  facet normal 0.866025 -0.5 0
    outer loop
      vertex 30 -51.9615 40
      vertex 60 0 0
      vertex 60 0 40
    endloop
  endfacet
  facet normal 0.866025 -0.5 0
    outer loop
      vertex 60 0 0
      vertex 30 -51.9615 40
      vertex 30 -51.9615 0
    endloop
  endfacet
  facet normal -0 0 -1
    outer loop
      vertex 22.6031 -0.772542 0
      vertex -10.6325 -19.9611 0
      vertex 22.4808 0 0
    endloop
  endfacet
  facet normal 0 0 -1
    outer loop
      vertex 22.4808 0 0
      vertex -10.2065 20.6171 0
      vertex -10.0041 21.3727 0
    endloop
  endfacet
  facet normal 0 0 -1
    outer loop
      vertex -11.2404 -19.4689 0
      vertex 22.4808 0 0
      vertex -10.6325 -19.9611 0
    endloop
  endfacet
  facet normal 0 0 -1
    outer loop
      vertex 22.4808 0 0
      vertex -10.6325 19.9611 0
      vertex -10.2065 20.6171 0
    endloop
  endfacet
  facet normal 0 0 -1
    outer loop
      vertex -11.2404 19.4689 0
      vertex 22.4808 0 0
      vertex -11.2404 -19.4689 0
    endloop
  endfacet
  facet normal 0 0 -1
    outer loop
      vertex 22.4808 0 0
      vertex -11.2404 19.4689 0
      vertex -10.6325 19.9611 0
    endloop
  endfacet
  facet normal 0 0 -1
    outer loop
      vertex -11.9706 -19.1886 0
      vertex -11.2404 19.4689 0
      vertex -11.2404 -19.4689 0
    endloop
  endfacet
  facet normal 0 0 -1
    outer loop
      vertex -11.9706 -19.1886 0
      vertex -11.9706 19.1886 0
      vertex -11.2404 19.4689 0
    endloop
  endfacet
  facet normal 0 0 -1
    outer loop
      vertex -12.7517 -19.1477 0
      vertex -11.9706 19.1886 0
      vertex -11.9706 -19.1886 0
    endloop
  endfacet
  facet normal 0 0 -1
    outer loop
      vertex -12.7517 -19.1477 0
      vertex -12.7517 19.1477 0
      vertex -11.9706 19.1886 0
    endloop
  endfacet
  facet normal 0 0 -1
    outer loop
      vertex -13.5072 -19.3501 0
      vertex -12.7517 19.1477 0
      vertex -12.7517 -19.1477 0
    endloop
  endfacet
  facet normal 0 0 -1
    outer loop
      vertex -13.5072 -19.3501 0
      vertex -13.5072 19.3501 0
      vertex -12.7517 19.1477 0
    endloop
  endfacet
  facet normal 0 0 -1
    outer loop
      vertex -14.1632 -19.7761 0
      vertex -13.5072 19.3501 0
      vertex -13.5072 -19.3501 0
    endloop
  endfacet
  facet normal 0 0 -1
    outer loop
      vertex -14.1632 -19.7761 0
      vertex -14.1632 19.7761 0
      vertex -13.5072 19.3501 0
    endloop
  endfacet
  facet normal 0 0 -1
    outer loop
      vertex -60 0 0
      vertex -14.1632 -19.7761 0
      vertex -14.6554 -20.384 0
    endloop
  endfacet
  facet normal 0 0 -1
    outer loop
      vertex -14.1632 -19.7761 0
      vertex -60 0 0
      vertex -14.1632 19.7761 0
    endloop
  endfacet
  facet normal 0 0 -1
    outer loop
      vertex -60 0 0
      vertex -14.6554 -20.384 0
      vertex -14.9358 -21.1142 0
    endloop
  endfacet
  facet normal -0 0 -1
    outer loop
      vertex -14.1632 19.7761 0
      vertex -60 0 0
      vertex -14.6554 20.384 0
    endloop
  endfacet
  facet normal 0 0 -1
    outer loop
      vertex -60 0 0
      vertex -14.9358 -21.1142 0
      vertex -14.9767 -21.8953 0
    endloop
  endfacet
  facet normal -0 0 -1
    outer loop
      vertex -14.6554 20.384 0
      vertex -60 0 0
      vertex -14.9358 21.1142 0
    endloop
  endfacet
  facet normal 0 0 -1
    outer loop
      vertex 26.4502 -2.02254 0
      vertex 60 0 0
      vertex 30 -51.9615 0
    endloop
  endfacet
  facet normal 0 0 -1
    outer loop
      vertex 27.3584 0.772542 0
      vertex 60 0 0
      vertex 27.4808 0 0
    endloop
  endfacet
  facet normal -0 0 -1
    outer loop
      vertex 60 0 0
      vertex 27.3584 -0.772542 0
      vertex 27.4808 0 0
    endloop
  endfacet
  facet normal 0 0 -1
    outer loop
      vertex 60 0 0
      vertex 27.0033 -1.46946 0
      vertex 27.3584 -0.772542 0
    endloop
  endfacet
  facet normal 0 0 -1
    outer loop
      vertex 60 0 0
      vertex 26.4502 -2.02254 0
      vertex 27.0033 -1.46946 0
    endloop
  endfacet
  facet normal 0 0 -1
    outer loop
      vertex 30 -51.9615 0
      vertex 25.7533 -2.37764 0
      vertex 26.4502 -2.02254 0
    endloop
  endfacet
  facet normal 0 0 -1
    outer loop
      vertex 30 -51.9615 0
      vertex 24.9808 -2.5 0
      vertex 25.7533 -2.37764 0
    endloop
  endfacet
  facet normal 0 0 -1
    outer loop
      vertex 30 -51.9615 0
      vertex 24.2082 -2.37764 0
      vertex 24.9808 -2.5 0
    endloop
  endfacet
  facet normal 0 0 -1
    outer loop
      vertex -10.045 -22.1538 0
      vertex 24.2082 -2.37764 0
      vertex 30 -51.9615 0
    endloop
  endfacet
  facet normal -0 0 -1
    outer loop
      vertex 24.2082 -2.37764 0
      vertex -10.045 -22.1538 0
      vertex 23.5113 -2.02254 0
    endloop
  endfacet
  facet normal 0 -0 -1
    outer loop
      vertex -10.0041 -21.3727 0
      vertex 23.5113 -2.02254 0
      vertex -10.045 -22.1538 0
    endloop
  endfacet
  facet normal -0 0 -1
    outer loop
      vertex 23.5113 -2.02254 0
      vertex -10.0041 -21.3727 0
      vertex 22.9582 -1.46946 0
    endloop
  endfacet
  facet normal 0 0 -1
    outer loop
      vertex -10.2065 -20.6171 0
      vertex 22.9582 -1.46946 0
      vertex -10.0041 -21.3727 0
    endloop
  endfacet
  facet normal -0 0 -1
    outer loop
      vertex 22.9582 -1.46946 0
      vertex -10.2065 -20.6171 0
      vertex 22.6031 -0.772542 0
    endloop
  endfacet
  facet normal 0 0 -1
    outer loop
      vertex 30 -51.9615 0
      vertex -10.3253 -22.884 0
      vertex -10.045 -22.1538 0
    endloop
  endfacet
  facet normal 0 0 -1
    outer loop
      vertex 30 -51.9615 0
      vertex -10.8176 -23.4918 0
      vertex -10.3253 -22.884 0
    endloop
  endfacet
  facet normal 0 0 -1
    outer loop
      vertex 30 -51.9615 0
      vertex -11.4735 -23.9178 0
      vertex -10.8176 -23.4918 0
    endloop
  endfacet
  facet normal 0 0 -1
    outer loop
      vertex -30 -51.9615 0
      vertex -11.4735 -23.9178 0
      vertex 30 -51.9615 0
    endloop
  endfacet
  facet normal 0 0 -1
    outer loop
      vertex -11.4735 -23.9178 0
      vertex -30 -51.9615 0
      vertex -12.2291 -24.1203 0
    endloop
  endfacet
  facet normal -0 0 -1
    outer loop
      vertex -12.2291 -24.1203 0
      vertex -30 -51.9615 0
      vertex -13.0102 -24.0793 0
    endloop
  endfacet
  facet normal 0 0 -1
    outer loop
      vertex -60 0 0
      vertex -14.9767 -21.8953 0
      vertex -30 -51.9615 0
    endloop
  endfacet
  facet normal -0 0 -1
    outer loop
      vertex -14.7742 -22.6508 0
      vertex -30 -51.9615 0
      vertex -14.9767 -21.8953 0
    endloop
  endfacet
  facet normal -0 0 -1
    outer loop
      vertex -14.3482 -23.3068 0
      vertex -30 -51.9615 0
      vertex -14.7742 -22.6508 0
    endloop
  endfacet
  facet normal -0 0 -1
    outer loop
      vertex -13.7404 -23.799 0
      vertex -30 -51.9615 0
      vertex -14.3482 -23.3068 0
    endloop
  endfacet
  facet normal -0 0 -1
    outer loop
      vertex -13.0102 -24.0793 0
      vertex -30 -51.9615 0
      vertex -13.7404 -23.799 0
    endloop
  endfacet
  facet normal 0 0 -1
    outer loop
      vertex 27.0033 1.46946 0
      vertex 60 0 0
      vertex 27.3584 0.772542 0
    endloop
  endfacet
  facet normal 0 0 -1
    outer loop
      vertex 26.4502 2.02254 0
      vertex 60 0 0
      vertex 27.0033 1.46946 0
    endloop
  endfacet
  facet normal 0 0 -1
    outer loop
      vertex 60 0 0
      vertex 26.4502 2.02254 0
      vertex 30 51.9615 0
    endloop
  endfacet
  facet normal 0 0 -1
    outer loop
      vertex 25.7533 2.37764 0
      vertex 30 51.9615 0
      vertex 26.4502 2.02254 0
    endloop
  endfacet
  facet normal 0 0 -1
    outer loop
      vertex 24.9808 2.5 0
      vertex 30 51.9615 0
      vertex 25.7533 2.37764 0
    endloop
  endfacet
  facet normal 0 0 -1
    outer loop
      vertex 24.2082 2.37764 0
      vertex 30 51.9615 0
      vertex 24.9808 2.5 0
    endloop
  endfacet
  facet normal 0 0 -1
    outer loop
      vertex -10.045 22.1538 0
      vertex 24.2082 2.37764 0
      vertex 23.5113 2.02254 0
    endloop
  endfacet
  facet normal 0 0 -1
    outer loop
      vertex -10.0041 21.3727 0
      vertex 23.5113 2.02254 0
      vertex 22.9582 1.46946 0
    endloop
  endfacet
  facet normal 0 0 -1
    outer loop
      vertex -10.0041 21.3727 0
      vertex 22.9582 1.46946 0
      vertex 22.6031 0.772542 0
    endloop
  endfacet
  facet normal 0 0 -1
    outer loop
      vertex -10.0041 21.3727 0
      vertex 22.6031 0.772542 0
      vertex 22.4808 0 0
    endloop
  endfacet
  facet normal 0 0 -1
    outer loop
      vertex -10.6325 -19.9611 0
      vertex 22.6031 -0.772542 0
      vertex -10.2065 -20.6171 0
    endloop
  endfacet
  facet normal 0 0 -1
    outer loop
      vertex 23.5113 2.02254 0
      vertex -10.0041 21.3727 0
      vertex -10.045 22.1538 0
    endloop
  endfacet
  facet normal 0 0 -1
    outer loop
      vertex 24.2082 2.37764 0
      vertex -10.045 22.1538 0
      vertex 30 51.9615 0
    endloop
  endfacet
  facet normal 0 0 -1
    outer loop
      vertex -10.3253 22.884 0
      vertex 30 51.9615 0
      vertex -10.045 22.1538 0
    endloop
  endfacet
  facet normal 0 0 -1
    outer loop
      vertex -10.8176 23.4918 0
      vertex 30 51.9615 0
      vertex -10.3253 22.884 0
    endloop
  endfacet
  facet normal 0 0 -1
    outer loop
      vertex -11.4735 23.9178 0
      vertex 30 51.9615 0
      vertex -10.8176 23.4918 0
    endloop
  endfacet
  facet normal 0 0 -1
    outer loop
      vertex -30 51.9615 0
      vertex -11.4735 23.9178 0
      vertex -12.2291 24.1203 0
    endloop
  endfacet
  facet normal 0 0 -1
    outer loop
      vertex -30 51.9615 0
      vertex -12.2291 24.1203 0
      vertex -13.0102 24.0793 0
    endloop
  endfacet
  facet normal 0 0 -1
    outer loop
      vertex -30 51.9615 0
      vertex -13.0102 24.0793 0
      vertex -13.7404 23.799 0
    endloop
  endfacet
  facet normal 0 0 -1
    outer loop
      vertex -11.4735 23.9178 0
      vertex -30 51.9615 0
      vertex 30 51.9615 0
    endloop
  endfacet
  facet normal 0 0 -1
    outer loop
      vertex -14.3482 23.3068 0
      vertex -30 51.9615 0
      vertex -13.7404 23.799 0
    endloop
  endfacet
  facet normal 0 0 -1
    outer loop
      vertex -14.7742 22.6508 0
      vertex -30 51.9615 0
      vertex -14.3482 23.3068 0
    endloop
  endfacet
  facet normal 0 0 -1
    outer loop
      vertex -14.9767 21.8953 0
      vertex -30 51.9615 0
      vertex -14.7742 22.6508 0
    endloop
  endfacet
  facet normal -0 0 -1
    outer loop
      vertex -14.9358 21.1142 0
      vertex -60 0 0
      vertex -14.9767 21.8953 0
    endloop
  endfacet
  facet normal -0 0 -1
    outer loop
      vertex -14.9767 21.8953 0
      vertex -60 0 0
      vertex -30 51.9615 0
    endloop
  endfacet
  facet normal -0.866025 -0.5 0
    outer loop
      vertex -30 -51.9615 0
      vertex -60 0 40
      vertex -60 0 0
    endloop
  endfacet
  facet normal -0.866025 -0.5 0
    outer loop
      vertex -60 0 40
      vertex -30 -51.9615 0
      vertex -30 -51.9615 40
    endloop
  endfacet
  facet normal 0 0 1
    outer loop
      vertex 30 51.9615 40
      vertex 57.6906 0 40
      vertex 60 0 40
    endloop
  endfacet
  facet normal 0 0 1
    outer loop
      vertex 30 51.9615 40
      vertex 28.8453 49.9615 40
      vertex 57.6906 0 40
    endloop
  endfacet
  facet normal 0 0 1
    outer loop
      vertex 30 51.9615 40
      vertex -28.8453 49.9615 40
      vertex 28.8453 49.9615 40
    endloop
  endfacet
  facet normal -0 0 1
    outer loop
      vertex -30 51.9615 40
      vertex -28.8453 49.9615 40
      vertex 30 51.9615 40
    endloop
  endfacet
  facet normal 0 0 1
    outer loop
      vertex -30 51.9615 40
      vertex -57.6906 0 40
      vertex -28.8453 49.9615 40
    endloop
  endfacet
  facet normal 0 -0 1
    outer loop
      vertex -57.6906 0 40
      vertex -30 51.9615 40
      vertex -60 0 40
    endloop
  endfacet
  facet normal -0 0 1
    outer loop
      vertex 57.6906 0 40
      vertex 30 -51.9615 40
      vertex 60 0 40
    endloop
  endfacet
  facet normal -0 0 1
    outer loop
      vertex 28.8453 -49.9615 40
      vertex 30 -51.9615 40
      vertex 57.6906 0 40
    endloop
  endfacet
  facet normal -0 0 1
    outer loop
      vertex -28.8453 -49.9615 40
      vertex 30 -51.9615 40
      vertex 28.8453 -49.9615 40
    endloop
  endfacet
  facet normal 0 0 1
    outer loop
      vertex -28.8453 -49.9615 40
      vertex -30 -51.9615 40
      vertex 30 -51.9615 40
    endloop
  endfacet
  facet normal 0 0 1
    outer loop
      vertex -57.6906 0 40
      vertex -30 -51.9615 40
      vertex -28.8453 -49.9615 40
    endloop
  endfacet
  facet normal 0 0 1
    outer loop
      vertex -30 -51.9615 40
      vertex -57.6906 0 40
      vertex -60 0 40
    endloop
  endfacet
  facet normal -0.866025 0.5 0
    outer loop
      vertex -60 0 0
      vertex -30 51.9615 40
      vertex -30 51.9615 0
    endloop
  endfacet
  facet normal -0.866025 0.5 0
    outer loop
      vertex -30 51.9615 40
      vertex -60 0 0
      vertex -60 0 40
    endloop
  endfacet
  facet normal 0 1 -0
    outer loop
      vertex 30 51.9615 0
      vertex -30 51.9615 40
      vertex 30 51.9615 40
    endloop
  endfacet
  facet normal 0 1 0
    outer loop
      vertex -30 51.9615 40
      vertex 30 51.9615 0
      vertex -30 51.9615 0
    endloop
  endfacet
  facet normal 0.866025 0.5 0
    outer loop
      vertex 60 0 40
      vertex 30 51.9615 0
      vertex 30 51.9615 40
    endloop
  endfacet
  facet normal 0.866025 0.5 0
    outer loop
      vertex 30 51.9615 0
      vertex 60 0 40
      vertex 60 0 0
    endloop
  endfacet
  facet normal 0 1 -0
    outer loop
      vertex 28.8453 -49.9615 3
      vertex -28.8453 -49.9615 40
      vertex 28.8453 -49.9615 40
    endloop
  endfacet
  facet normal 0 1 0
    outer loop
      vertex -28.8453 -49.9615 40
      vertex 28.8453 -49.9615 3
      vertex -28.8453 -49.9615 3
    endloop
  endfacet
  facet normal -0.866025 0.5 0
    outer loop
      vertex 28.8453 -49.9615 3
      vertex 57.6906 0 40
      vertex 57.6906 0 3
    endloop
  endfacet
  facet normal -0.866025 0.5 0
    outer loop
      vertex 57.6906 0 40
      vertex 28.8453 -49.9615 3
      vertex 28.8453 -49.9615 40
    endloop
  endfacet
  facet normal -0.866025 -0.5 0
    outer loop
      vertex 57.6906 0 3
      vertex 28.8453 49.9615 40
      vertex 28.8453 49.9615 3
    endloop
  endfacet
  facet normal -0.866025 -0.5 0
    outer loop
      vertex 28.8453 49.9615 40
      vertex 57.6906 0 3
      vertex 57.6906 0 40
    endloop
  endfacet
  facet normal 0.866025 0.5 0
    outer loop
      vertex -28.8453 -49.9615 40
      vertex -57.6906 0 3
      vertex -57.6906 0 40
    endloop
  endfacet
  facet normal 0.866025 0.5 0
    outer loop
      vertex -57.6906 0 3
      vertex -28.8453 -49.9615 40
      vertex -28.8453 -49.9615 3
    endloop
  endfacet
  facet normal 0 0 1
    outer loop
      vertex 22.6031 0.772542 3
      vertex -10.6325 19.9611 3
      vertex 22.4808 0 3
    endloop
  endfacet
  facet normal 0 0 1
    outer loop
      vertex 22.4808 0 3
      vertex -10.2065 -20.6171 3
      vertex -10.0041 -21.3727 3
    endloop
  endfacet
  facet normal -0 0 1
    outer loop
      vertex -11.2404 19.4689 3
      vertex 22.4808 0 3
      vertex -10.6325 19.9611 3
    endloop
  endfacet
  facet normal 0 0 1
    outer loop
      vertex 22.4808 0 3
      vertex -10.6325 -19.9611 3
      vertex -10.2065 -20.6171 3
    endloop
  endfacet
  facet normal 0 0 1
    outer loop
      vertex -11.2404 -19.4689 3
      vertex 22.4808 0 3
      vertex -11.2404 19.4689 3
    endloop
  endfacet
  facet normal 0 0 1
    outer loop
      vertex 22.4808 0 3
      vertex -11.2404 -19.4689 3
      vertex -10.6325 -19.9611 3
    endloop
  endfacet
  facet normal -0 0 1
    outer loop
      vertex -11.9706 19.1886 3
      vertex -11.2404 -19.4689 3
      vertex -11.2404 19.4689 3
    endloop
  endfacet
  facet normal 0 0 1
    outer loop
      vertex -11.9706 19.1886 3
      vertex -11.9706 -19.1886 3
      vertex -11.2404 -19.4689 3
    endloop
  endfacet
  facet normal -0 0 1
    outer loop
      vertex -12.7517 19.1477 3
      vertex -11.9706 -19.1886 3
      vertex -11.9706 19.1886 3
    endloop
  endfacet
  facet normal 0 0 1
    outer loop
      vertex -12.7517 19.1477 3
      vertex -12.7517 -19.1477 3
      vertex -11.9706 -19.1886 3
    endloop
  endfacet
  facet normal 0 0 1
    outer loop
      vertex -13.5072 19.3501 3
      vertex -12.7517 -19.1477 3
      vertex -12.7517 19.1477 3
    endloop
  endfacet
  facet normal 0 0 1
    outer loop
      vertex -13.5072 19.3501 3
      vertex -13.5072 -19.3501 3
      vertex -12.7517 -19.1477 3
    endloop
  endfacet
  facet normal 0 0 1
    outer loop
      vertex -14.1632 19.7761 3
      vertex -13.5072 -19.3501 3
      vertex -13.5072 19.3501 3
    endloop
  endfacet
  facet normal 0 0 1
    outer loop
      vertex -14.1632 19.7761 3
      vertex -14.1632 -19.7761 3
      vertex -13.5072 -19.3501 3
    endloop
  endfacet
  facet normal 0 0 1
    outer loop
      vertex -57.6906 0 3
      vertex -14.1632 19.7761 3
      vertex -14.6554 20.384 3
    endloop
  endfacet
  facet normal 0 0 1
    outer loop
      vertex -14.1632 19.7761 3
      vertex -57.6906 0 3
      vertex -14.1632 -19.7761 3
    endloop
  endfacet
  facet normal 0 0 1
    outer loop
      vertex -57.6906 0 3
      vertex -14.6554 20.384 3
      vertex -14.9358 21.1142 3
    endloop
  endfacet
  facet normal 0 0 1
    outer loop
      vertex -14.1632 -19.7761 3
      vertex -57.6906 0 3
      vertex -14.6554 -20.384 3
    endloop
  endfacet
  facet normal 0 0 1
    outer loop
      vertex -57.6906 0 3
      vertex -14.9358 21.1142 3
      vertex -14.9767 21.8953 3
    endloop
  endfacet
  facet normal 0 0 1
    outer loop
      vertex -14.6554 -20.384 3
      vertex -57.6906 0 3
      vertex -14.9358 -21.1142 3
    endloop
  endfacet
  facet normal -0 0 1
    outer loop
      vertex 26.4502 2.02254 3
      vertex 57.6906 0 3
      vertex 28.8453 49.9615 3
    endloop
  endfacet
  facet normal 0 0 1
    outer loop
      vertex 27.3584 -0.772542 3
      vertex 57.6906 0 3
      vertex 27.4808 0 3
    endloop
  endfacet
  facet normal 0 0 1
    outer loop
      vertex 57.6906 0 3
      vertex 27.3584 0.772542 3
      vertex 27.4808 0 3
    endloop
  endfacet
  facet normal 0 0 1
    outer loop
      vertex 57.6906 0 3
      vertex 27.0033 1.46946 3
      vertex 27.3584 0.772542 3
    endloop
  endfacet
  facet normal 0 0 1
    outer loop
      vertex 57.6906 0 3
      vertex 26.4502 2.02254 3
      vertex 27.0033 1.46946 3
    endloop
  endfacet
  facet normal 0 0 1
    outer loop
      vertex 28.8453 49.9615 3
      vertex 25.7533 2.37764 3
      vertex 26.4502 2.02254 3
    endloop
  endfacet
  facet normal 0 0 1
    outer loop
      vertex 28.8453 49.9615 3
      vertex 24.9808 2.5 3
      vertex 25.7533 2.37764 3
    endloop
  endfacet
  facet normal 0 0 1
    outer loop
      vertex 28.8453 49.9615 3
      vertex 24.2082 2.37764 3
      vertex 24.9808 2.5 3
    endloop
  endfacet
  facet normal -0 0 1
    outer loop
      vertex -10.045 22.1538 3
      vertex 24.2082 2.37764 3
      vertex 28.8453 49.9615 3
    endloop
  endfacet
  facet normal 0 0 1
    outer loop
      vertex 24.2082 2.37764 3
      vertex -10.045 22.1538 3
      vertex 23.5113 2.02254 3
    endloop
  endfacet
  facet normal -0 -0 1
    outer loop
      vertex -10.0041 21.3727 3
      vertex 23.5113 2.02254 3
      vertex -10.045 22.1538 3
    endloop
  endfacet
  facet normal 0 0 1
    outer loop
      vertex 23.5113 2.02254 3
      vertex -10.0041 21.3727 3
      vertex 22.9582 1.46946 3
    endloop
  endfacet
  facet normal -0 0 1
    outer loop
      vertex -10.2065 20.6171 3
      vertex 22.9582 1.46946 3
      vertex -10.0041 21.3727 3
    endloop
  endfacet
  facet normal 0 0 1
    outer loop
      vertex 22.9582 1.46946 3
      vertex -10.2065 20.6171 3
      vertex 22.6031 0.772542 3
    endloop
  endfacet
  facet normal 0 0 1
    outer loop
      vertex 28.8453 49.9615 3
      vertex -10.3253 22.884 3
      vertex -10.045 22.1538 3
    endloop
  endfacet
  facet normal 0 0 1
    outer loop
      vertex 28.8453 49.9615 3
      vertex -10.8176 23.4918 3
      vertex -10.3253 22.884 3
    endloop
  endfacet
  facet normal 0 0 1
    outer loop
      vertex 28.8453 49.9615 3
      vertex -11.4735 23.9178 3
      vertex -10.8176 23.4918 3
    endloop
  endfacet
  facet normal -0 0 1
    outer loop
      vertex -28.8453 49.9615 3
      vertex -11.4735 23.9178 3
      vertex 28.8453 49.9615 3
    endloop
  endfacet
  facet normal 0 0 1
    outer loop
      vertex -11.4735 23.9178 3
      vertex -28.8453 49.9615 3
      vertex -12.2291 24.1203 3
    endloop
  endfacet
  facet normal 0 0 1
    outer loop
      vertex -12.2291 24.1203 3
      vertex -28.8453 49.9615 3
      vertex -13.0102 24.0793 3
    endloop
  endfacet
  facet normal 0 0 1
    outer loop
      vertex -57.6906 0 3
      vertex -14.9767 21.8953 3
      vertex -28.8453 49.9615 3
    endloop
  endfacet
  facet normal 0 0 1
    outer loop
      vertex -14.7742 22.6508 3
      vertex -28.8453 49.9615 3
      vertex -14.9767 21.8953 3
    endloop
  endfacet
  facet normal 0 0 1
    outer loop
      vertex -14.3482 23.3068 3
      vertex -28.8453 49.9615 3
      vertex -14.7742 22.6508 3
    endloop
  endfacet
  facet normal 0 0 1
    outer loop
      vertex -13.7404 23.799 3
      vertex -28.8453 49.9615 3
      vertex -14.3482 23.3068 3
    endloop
  endfacet
  facet normal 0 0 1
    outer loop
      vertex -13.0102 24.0793 3
      vertex -28.8453 49.9615 3
      vertex -13.7404 23.799 3
    endloop
  endfacet
  facet normal 0 0 1
    outer loop
      vertex 27.0033 -1.46946 3
      vertex 57.6906 0 3
      vertex 27.3584 -0.772542 3
    endloop
  endfacet
  facet normal 0 0 1
    outer loop
      vertex 26.4502 -2.02254 3
      vertex 57.6906 0 3
      vertex 27.0033 -1.46946 3
    endloop
  endfacet
  facet normal 0 0 1
    outer loop
      vertex 57.6906 0 3
      vertex 26.4502 -2.02254 3
      vertex 28.8453 -49.9615 3
    endloop
  endfacet
  facet normal -0 0 1
    outer loop
      vertex 25.7533 -2.37764 3
      vertex 28.8453 -49.9615 3
      vertex 26.4502 -2.02254 3
    endloop
  endfacet
  facet normal -0 0 1
    outer loop
      vertex 24.9808 -2.5 3
      vertex 28.8453 -49.9615 3
      vertex 25.7533 -2.37764 3
    endloop
  endfacet
  facet normal 0 0 1
    outer loop
      vertex 24.2082 -2.37764 3
      vertex 28.8453 -49.9615 3
      vertex 24.9808 -2.5 3
    endloop
  endfacet
  facet normal 0 0 1
    outer loop
      vertex -10.045 -22.1538 3
      vertex 24.2082 -2.37764 3
      vertex 23.5113 -2.02254 3
    endloop
  endfacet
  facet normal 0 0 1
    outer loop
      vertex -10.0041 -21.3727 3
      vertex 23.5113 -2.02254 3
      vertex 22.9582 -1.46946 3
    endloop
  endfacet
  facet normal 0 0 1
    outer loop
      vertex -10.0041 -21.3727 3
      vertex 22.9582 -1.46946 3
      vertex 22.6031 -0.772542 3
    endloop
  endfacet
  facet normal 0 0 1
    outer loop
      vertex -10.0041 -21.3727 3
      vertex 22.6031 -0.772542 3
      vertex 22.4808 0 3
    endloop
  endfacet
  facet normal -0 0 1
    outer loop
      vertex -10.6325 19.9611 3
      vertex 22.6031 0.772542 3
      vertex -10.2065 20.6171 3
    endloop
  endfacet
  facet normal 0 0 1
    outer loop
      vertex 23.5113 -2.02254 3
      vertex -10.0041 -21.3727 3
      vertex -10.045 -22.1538 3
    endloop
  endfacet
  facet normal 0 0 1
    outer loop
      vertex 24.2082 -2.37764 3
      vertex -10.045 -22.1538 3
      vertex 28.8453 -49.9615 3
    endloop
  endfacet
  facet normal -0 0 1
    outer loop
      vertex -10.3253 -22.884 3
      vertex 28.8453 -49.9615 3
      vertex -10.045 -22.1538 3
    endloop
  endfacet
  facet normal -0 0 1
    outer loop
      vertex -10.8176 -23.4918 3
      vertex 28.8453 -49.9615 3
      vertex -10.3253 -22.884 3
    endloop
  endfacet
  facet normal -0 0 1
    outer loop
      vertex -11.4735 -23.9178 3
      vertex 28.8453 -49.9615 3
      vertex -10.8176 -23.4918 3
    endloop
  endfacet
  facet normal 0 0 1
    outer loop
      vertex -28.8453 -49.9615 3
      vertex -11.4735 -23.9178 3
      vertex -12.2291 -24.1203 3
    endloop
  endfacet
  facet normal 0 0 1
    outer loop
      vertex -28.8453 -49.9615 3
      vertex -12.2291 -24.1203 3
      vertex -13.0102 -24.0793 3
    endloop
  endfacet
  facet normal 0 0 1
    outer loop
      vertex -28.8453 -49.9615 3
      vertex -13.0102 -24.0793 3
      vertex -13.7404 -23.799 3
    endloop
  endfacet
  facet normal 0 0 1
    outer loop
      vertex -11.4735 -23.9178 3
      vertex -28.8453 -49.9615 3
      vertex 28.8453 -49.9615 3
    endloop
  endfacet
  facet normal 0 0 1
    outer loop
      vertex -14.3482 -23.3068 3
      vertex -28.8453 -49.9615 3
      vertex -13.7404 -23.799 3
    endloop
  endfacet
  facet normal 0 0 1
    outer loop
      vertex -14.7742 -22.6508 3
      vertex -28.8453 -49.9615 3
      vertex -14.3482 -23.3068 3
    endloop
  endfacet
  facet normal 0 0 1
    outer loop
      vertex -14.9767 -21.8953 3
      vertex -28.8453 -49.9615 3
      vertex -14.7742 -22.6508 3
    endloop
  endfacet
  facet normal 0 0 1
    outer loop
      vertex -14.9358 -21.1142 3
      vertex -57.6906 0 3
      vertex -14.9767 -21.8953 3
    endloop
  endfacet
  facet normal 0 0 1
    outer loop
      vertex -14.9767 -21.8953 3
      vertex -57.6906 0 3
      vertex -28.8453 -49.9615 3
    endloop
  endfacet
  facet normal 0.866025 -0.5 0
    outer loop
      vertex -57.6906 0 40
      vertex -28.8453 49.9615 3
      vertex -28.8453 49.9615 40
    endloop
  endfacet
  facet normal 0.866025 -0.5 0
    outer loop
      vertex -28.8453 49.9615 3
      vertex -57.6906 0 40
      vertex -57.6906 0 3
    endloop
  endfacet
  facet normal 0 -1 0
    outer loop
      vertex -28.8453 49.9615 3
      vertex 28.8453 49.9615 40
      vertex -28.8453 49.9615 40
    endloop
  endfacet
  facet normal 0 -1 -0
    outer loop
      vertex 28.8453 49.9615 40
      vertex -28.8453 49.9615 3
      vertex 28.8453 49.9615 3
    endloop
  endfacet
  facet normal -0.5 -0.866025 0
    outer loop
      vertex 19.7667 42.2369 17
      vertex 26.6949 38.2369 23
      vertex 19.7667 42.2369 23
    endloop
  endfacet
  facet normal -0.5 -0.866025 -0
    outer loop
      vertex 26.6949 38.2369 23
      vertex 19.7667 42.2369 17
      vertex 26.6949 38.2369 17
    endloop
  endfacet
  facet normal 0 0 1
    outer loop
      vertex 24.1453 49.821 23
      vertex 26.6949 38.2369 23
      vertex 31.0735 45.821 23
    endloop
  endfacet
  facet normal 0 0 1
    outer loop
      vertex 26.6949 38.2369 23
      vertex 24.1453 49.821 23
      vertex 19.7667 42.2369 23
    endloop
  endfacet
  facet normal -0.866029 0.499993 -4.16185e-06
    outer loop
      vertex 24.1453 49.821 17
      vertex 19.7667 42.2369 17
      vertex 22.6453 47.2229 20
    endloop
  endfacet
  facet normal -0.866031 0.499991 0
    outer loop
      vertex 19.7667 42.2369 23
      vertex 22.6453 47.2229 20
      vertex 19.7667 42.2369 17
    endloop
  endfacet
  facet normal -0.866029 0.499993 4.16185e-06
    outer loop
      vertex 22.6453 47.2229 20
      vertex 19.7667 42.2369 23
      vertex 24.1453 49.821 23
    endloop
  endfacet
  facet normal 0 0 -1
    outer loop
      vertex 26.6949 38.2369 17
      vertex 24.1453 49.821 17
      vertex 31.0735 45.821 17
    endloop
  endfacet
  facet normal 0 -0 -1
    outer loop
      vertex 24.1453 49.821 17
      vertex 26.6949 38.2369 17
      vertex 19.7667 42.2369 17
    endloop
  endfacet
  facet normal 0.866029 -0.499993 -4.16185e-06
    outer loop
      vertex 31.0735 45.821 23
      vertex 26.6949 38.2369 23
      vertex 29.5735 43.2229 20
    endloop
  endfacet
  facet normal 0.866031 -0.499991 0
    outer loop
      vertex 26.6949 38.2369 17
      vertex 29.5735 43.2229 20
      vertex 26.6949 38.2369 23
    endloop
  endfacet
  facet normal 0.866029 -0.499993 4.16185e-06
    outer loop
      vertex 29.5735 43.2229 20
      vertex 26.6949 38.2369 17
      vertex 31.0735 45.821 17
    endloop
  endfacet
  facet normal 0.353552 0.61237 -0.707109
    outer loop
      vertex 29.5735 43.2229 20
      vertex 24.1453 49.821 23
      vertex 31.0735 45.821 23
    endloop
  endfacet
  facet normal 0.353552 0.61237 -0.707109
    outer loop
      vertex 24.1453 49.821 23
      vertex 29.5735 43.2229 20
      vertex 22.6453 47.2229 20
    endloop
  endfacet
  facet normal 0.353552 0.61237 0.707109
    outer loop
      vertex 24.1453 49.821 17
      vertex 29.5735 43.2229 20
      vertex 31.0735 45.821 17
    endloop
  endfacet
  facet normal 0.353552 0.61237 0.707109
    outer loop
      vertex 29.5735 43.2229 20
      vertex 24.1453 49.821 17
      vertex 22.6453 47.2229 20
    endloop
  endfacet
  facet normal 1 -0 0
    outer loop
      vertex -46.4615 -4 23
      vertex -46.4615 4 17
      vertex -46.4615 4 23
    endloop
  endfacet
  facet normal 1 0 0
    outer loop
      vertex -46.4615 4 17
      vertex -46.4615 -4 23
      vertex -46.4615 -4 17
    endloop
  endfacet
  facet normal -0 0 1
    outer loop
      vertex -55.2189 4 23
      vertex -46.4615 -4 23
      vertex -46.4615 4 23
    endloop
  endfacet
  facet normal 0 0 1
    outer loop
      vertex -46.4615 -4 23
      vertex -55.2189 4 23
      vertex -55.2189 -4 23
    endloop
  endfacet
  facet normal 0 -1 0
    outer loop
      vertex -52.2189 -4 20
      vertex -46.4615 -4 23
      vertex -55.2189 -4 23
    endloop
  endfacet
  facet normal 0 -1 0
    outer loop
      vertex -46.4615 -4 17
      vertex -52.2189 -4 20
      vertex -55.2189 -4 17
    endloop
  endfacet
  facet normal 0 -1 0
    outer loop
      vertex -52.2189 -4 20
      vertex -46.4615 -4 17
      vertex -46.4615 -4 23
    endloop
  endfacet
  facet normal 0 0 -1
    outer loop
      vertex -55.2189 -4 17
      vertex -46.4615 4 17
      vertex -46.4615 -4 17
    endloop
  endfacet
  facet normal -0 0 -1
    outer loop
      vertex -46.4615 4 17
      vertex -55.2189 -4 17
      vertex -55.2189 4 17
    endloop
  endfacet
  facet normal 0 1 0
    outer loop
      vertex -46.4615 4 23
      vertex -52.2189 4 20
      vertex -55.2189 4 23
    endloop
  endfacet
  facet normal 0 1 -0
    outer loop
      vertex -46.4615 4 17
      vertex -52.2189 4 20
      vertex -46.4615 4 23
    endloop
  endfacet
  facet normal 0 1 0
    outer loop
      vertex -52.2189 4 20
      vertex -46.4615 4 17
      vertex -55.2189 4 17
    endloop
  endfacet
  facet normal -0.707107 0 -0.707107
    outer loop
      vertex -52.2189 -4 20
      vertex -55.2189 4 23
      vertex -52.2189 4 20
    endloop
  endfacet
  facet normal -0.707107 -0 -0.707107
    outer loop
      vertex -55.2189 4 23
      vertex -52.2189 -4 20
      vertex -55.2189 -4 23
    endloop
  endfacet
  facet normal -0.707107 0 0.707107
    outer loop
      vertex -55.2189 -4 17
      vertex -52.2189 4 20
      vertex -55.2189 4 17
    endloop
  endfacet
  facet normal -0.707107 0 0.707107
    outer loop
      vertex -52.2189 4 20
      vertex -55.2189 -4 17
      vertex -52.2189 -4 20
    endloop
  endfacet
  facet normal -0.5 0.866025 0
    outer loop
      vertex 26.6949 -38.2369 17
      vertex 19.7667 -42.2369 23
      vertex 26.6949 -38.2369 23
    endloop
  endfacet
  facet normal -0.5 0.866025 0
    outer loop
      vertex 19.7667 -42.2369 23
      vertex 26.6949 -38.2369 17
      vertex 19.7667 -42.2369 17
    endloop
  endfacet
  facet normal 0 0 1
    outer loop
      vertex 26.6949 -38.2369 23
      vertex 24.1453 -49.821 23
      vertex 31.0735 -45.821 23
    endloop
  endfacet
  facet normal 0 -0 1
    outer loop
      vertex 24.1453 -49.821 23
      vertex 26.6949 -38.2369 23
      vertex 19.7667 -42.2369 23
    endloop
  endfacet
  facet normal 0.866031 0.499991 0
    outer loop
      vertex 26.6949 -38.2369 23
      vertex 29.5735 -43.2229 20
      vertex 26.6949 -38.2369 17
    endloop
  endfacet
  facet normal 0.866029 0.499993 -4.16185e-06
    outer loop
      vertex 29.5735 -43.2229 20
      vertex 26.6949 -38.2369 23
      vertex 31.0735 -45.821 23
    endloop
  endfacet
  facet normal 0.866029 0.499993 4.16185e-06
    outer loop
      vertex 26.6949 -38.2369 17
      vertex 29.5735 -43.2229 20
      vertex 31.0735 -45.821 17
    endloop
  endfacet
  facet normal 0 0 -1
    outer loop
      vertex 24.1453 -49.821 17
      vertex 26.6949 -38.2369 17
      vertex 31.0735 -45.821 17
    endloop
  endfacet
  facet normal 0 0 -1
    outer loop
      vertex 26.6949 -38.2369 17
      vertex 24.1453 -49.821 17
      vertex 19.7667 -42.2369 17
    endloop
  endfacet
  facet normal -0.866031 -0.499991 0
    outer loop
      vertex 19.7667 -42.2369 17
      vertex 22.6453 -47.2229 20
      vertex 19.7667 -42.2369 23
    endloop
  endfacet
  facet normal -0.866029 -0.499993 -4.16185e-06
    outer loop
      vertex 22.6453 -47.2229 20
      vertex 19.7667 -42.2369 17
      vertex 24.1453 -49.821 17
    endloop
  endfacet
  facet normal -0.866029 -0.499993 4.16185e-06
    outer loop
      vertex 19.7667 -42.2369 23
      vertex 22.6453 -47.2229 20
      vertex 24.1453 -49.821 23
    endloop
  endfacet
  facet normal 0.353552 -0.61237 -0.707109
    outer loop
      vertex 24.1453 -49.821 23
      vertex 29.5735 -43.2229 20
      vertex 31.0735 -45.821 23
    endloop
  endfacet
  facet normal 0.353552 -0.61237 -0.707109
    outer loop
      vertex 29.5735 -43.2229 20
      vertex 24.1453 -49.821 23
      vertex 22.6453 -47.2229 20
    endloop
  endfacet
  facet normal 0.353552 -0.61237 0.707109
    outer loop
      vertex 29.5735 -43.2229 20
      vertex 24.1453 -49.821 17
      vertex 31.0735 -45.821 17
    endloop
  endfacet
  facet normal 0.353552 -0.61237 0.707109
    outer loop
      vertex 24.1453 -49.821 17
      vertex 29.5735 -43.2229 20
      vertex 22.6453 -47.2229 20
    endloop
  endfacet
endsolid OpenSCAD_Model
