solid OpenSCAD_Model
  facet normal -0.9877 -0.156361 0
    outer loop
      vertex 23.1506 0 0
      vertex 23.0283 0.772542 3
      vertex 23.0283 0.772542 0
    endloop
  endfacet
  facet normal -0.9877 -0.156361 0
    outer loop
      vertex 23.0283 0.772542 3
      vertex 23.1506 0 0
      vertex 23.1506 0 3
    endloop
  endfacet
  facet normal 0.156444 -0.987687 0
    outer loop
      vertex 19.8781 2.37764 0
      vertex 20.6506 2.5 3
      vertex 19.8781 2.37764 3
    endloop
  endfacet
  facet normal 0.156444 -0.987687 0
    outer loop
      vertex 20.6506 2.5 3
      vertex 19.8781 2.37764 0
      vertex 20.6506 2.5 0
    endloop
  endfacet
  facet normal -0.156425 0.98769 0
    outer loop
      vertex 21.4232 -2.37764 0
      vertex 20.6506 -2.5 3
      vertex 21.4232 -2.37764 3
    endloop
  endfacet
  facet normal -0.156425 0.98769 0
    outer loop
      vertex 20.6506 -2.5 3
      vertex 21.4232 -2.37764 0
      vertex 20.6506 -2.5 0
    endloop
  endfacet
  facet normal -0.454002 0.891 0
    outer loop
      vertex 22.1201 -2.02254 0
      vertex 21.4232 -2.37764 3
      vertex 22.1201 -2.02254 3
    endloop
  endfacet
  facet normal -0.454002 0.891 0
    outer loop
      vertex 21.4232 -2.37764 3
      vertex 22.1201 -2.02254 0
      vertex 21.4232 -2.37764 0
    endloop
  endfacet
  facet normal -0.707094 -0.70712 0
    outer loop
      vertex 22.6732 1.46946 0
      vertex 22.1201 2.02254 3
      vertex 22.1201 2.02254 0
    endloop
  endfacet
  facet normal -0.707094 -0.70712 0
    outer loop
      vertex 22.1201 2.02254 3
      vertex 22.6732 1.46946 0
      vertex 22.6732 1.46946 3
    endloop
  endfacet
  facet normal -0.891005 -0.453993 0
    outer loop
      vertex 23.0283 0.772542 0
      vertex 22.6732 1.46946 3
      vertex 22.6732 1.46946 0
    endloop
  endfacet
  facet normal -0.891005 -0.453993 0
    outer loop
      vertex 22.6732 1.46946 3
      vertex 23.0283 0.772542 0
      vertex 23.0283 0.772542 3
    endloop
  endfacet
  facet normal 0.707094 -0.70712 0
    outer loop
      vertex 18.6281 1.46946 3
      vertex 19.1812 2.02254 0
      vertex 19.1812 2.02254 3
    endloop
  endfacet
  facet normal 0.707094 -0.70712 0
    outer loop
      vertex 19.1812 2.02254 0
      vertex 18.6281 1.46946 3
      vertex 18.6281 1.46946 0
    endloop
  endfacet
  facet normal 0.891005 -0.453993 0
    outer loop
      vertex 18.273 0.772542 3
      vertex 18.6281 1.46946 0
      vertex 18.6281 1.46946 3
    endloop
  endfacet
  facet normal 0.891005 -0.453993 0
    outer loop
      vertex 18.6281 1.46946 0
      vertex 18.273 0.772542 3
      vertex 18.273 0.772542 0
    endloop
  endfacet
  facet normal 0.454002 -0.891 0
    outer loop
      vertex 19.1812 2.02254 0
      vertex 19.8781 2.37764 3
      vertex 19.1812 2.02254 3
    endloop
  endfacet
  facet normal 0.454002 -0.891 0
    outer loop
      vertex 19.8781 2.37764 3
      vertex 19.1812 2.02254 0
      vertex 19.8781 2.37764 0
    endloop
  endfacet
  facet normal -0.891005 0.453993 0
    outer loop
      vertex 22.6732 -1.46946 0
      vertex 23.0283 -0.772542 3
      vertex 23.0283 -0.772542 0
    endloop
  endfacet
  facet normal -0.891005 0.453993 0
    outer loop
      vertex 23.0283 -0.772542 3
      vertex 22.6732 -1.46946 0
      vertex 22.6732 -1.46946 3
    endloop
  endfacet
  facet normal -0.156425 -0.98769 0
    outer loop
      vertex 20.6506 2.5 0
      vertex 21.4232 2.37764 3
      vertex 20.6506 2.5 3
    endloop
  endfacet
  facet normal -0.156425 -0.98769 -0
    outer loop
      vertex 21.4232 2.37764 3
      vertex 20.6506 2.5 0
      vertex 21.4232 2.37764 0
    endloop
  endfacet
  facet normal -0.454002 -0.891 0
    outer loop
      vertex 21.4232 2.37764 0
      vertex 22.1201 2.02254 3
      vertex 21.4232 2.37764 3
    endloop
  endfacet
  facet normal -0.454002 -0.891 -0
    outer loop
      vertex 22.1201 2.02254 3
      vertex 21.4232 2.37764 0
      vertex 22.1201 2.02254 0
    endloop
  endfacet
  facet normal 0.98768 -0.156486 0
    outer loop
      vertex 18.1506 0 3
      vertex 18.273 0.772542 0
      vertex 18.273 0.772542 3
    endloop
  endfacet
  facet normal 0.98768 -0.156486 0
    outer loop
      vertex 18.273 0.772542 0
      vertex 18.1506 0 3
      vertex 18.1506 0 0
    endloop
  endfacet
  facet normal -0.9877 0.156361 0
    outer loop
      vertex 23.0283 -0.772542 0
      vertex 23.1506 0 3
      vertex 23.1506 0 0
    endloop
  endfacet
  facet normal -0.9877 0.156361 0
    outer loop
      vertex 23.1506 0 3
      vertex 23.0283 -0.772542 0
      vertex 23.0283 -0.772542 3
    endloop
  endfacet
  facet normal -0.707094 0.70712 0
    outer loop
      vertex 22.1201 -2.02254 0
      vertex 22.6732 -1.46946 3
      vertex 22.6732 -1.46946 0
    endloop
  endfacet
  facet normal -0.707094 0.70712 0
    outer loop
      vertex 22.6732 -1.46946 3
      vertex 22.1201 -2.02254 0
      vertex 22.1201 -2.02254 3
    endloop
  endfacet
  facet normal 0.98768 0.156486 0
    outer loop
      vertex 18.273 -0.772542 3
      vertex 18.1506 0 0
      vertex 18.1506 0 3
    endloop
  endfacet
  facet normal 0.98768 0.156486 0
    outer loop
      vertex 18.1506 0 0
      vertex 18.273 -0.772542 3
      vertex 18.273 -0.772542 0
    endloop
  endfacet
  facet normal 0.156444 0.987687 -0
    outer loop
      vertex 20.6506 -2.5 0
      vertex 19.8781 -2.37764 3
      vertex 20.6506 -2.5 3
    endloop
  endfacet
  facet normal 0.156444 0.987687 0
    outer loop
      vertex 19.8781 -2.37764 3
      vertex 20.6506 -2.5 0
      vertex 19.8781 -2.37764 0
    endloop
  endfacet
  facet normal 0.707094 0.70712 0
    outer loop
      vertex 19.1812 -2.02254 3
      vertex 18.6281 -1.46946 0
      vertex 18.6281 -1.46946 3
    endloop
  endfacet
  facet normal 0.707094 0.70712 0
    outer loop
      vertex 18.6281 -1.46946 0
      vertex 19.1812 -2.02254 3
      vertex 19.1812 -2.02254 0
    endloop
  endfacet
  facet normal 0.891005 0.453993 0
    outer loop
      vertex 18.6281 -1.46946 3
      vertex 18.273 -0.772542 0
      vertex 18.273 -0.772542 3
    endloop
  endfacet
  facet normal 0.891005 0.453993 0
    outer loop
      vertex 18.273 -0.772542 0
      vertex 18.6281 -1.46946 3
      vertex 18.6281 -1.46946 0
    endloop
  endfacet
  facet normal 0.454002 0.891 -0
    outer loop
      vertex 19.8781 -2.37764 0
      vertex 19.1812 -2.02254 3
      vertex 19.8781 -2.37764 3
    endloop
  endfacet
  facet normal 0.454002 0.891 0
    outer loop
      vertex 19.1812 -2.02254 3
      vertex 19.8781 -2.37764 0
      vertex 19.1812 -2.02254 0
    endloop
  endfacet
  facet normal 0.629268 -0.777188 0
    outer loop
      vertex -12.1832 19.5568 0
      vertex -11.5753 20.049 3
      vertex -12.1832 19.5568 3
    endloop
  endfacet
  facet normal 0.629268 -0.777188 0
    outer loop
      vertex -11.5753 20.049 3
      vertex -12.1832 19.5568 0
      vertex -11.5753 20.049 0
    endloop
  endfacet
  facet normal -0.777113 -0.629362 0
    outer loop
      vertex -8.16025 19.134 0
      vertex -8.65249 19.7418 3
      vertex -8.65249 19.7418 0
    endloop
  endfacet
  facet normal -0.777113 -0.629362 0
    outer loop
      vertex -8.65249 19.7418 3
      vertex -8.16025 19.134 0
      vertex -8.16025 19.134 3
    endloop
  endfacet
  facet normal -0.998629 -0.0523414 0
    outer loop
      vertex -7.83901 17.6227 0
      vertex -7.87995 18.4038 3
      vertex -7.87995 18.4038 0
    endloop
  endfacet
  facet normal -0.998629 -0.0523414 0
    outer loop
      vertex -7.87995 18.4038 3
      vertex -7.83901 17.6227 0
      vertex -7.83901 17.6227 3
    endloop
  endfacet
  facet normal 0.998632 0.0522904 0
    outer loop
      vertex -12.7707 17.3642 3
      vertex -12.8116 18.1453 0
      vertex -12.8116 18.1453 3
    endloop
  endfacet
  facet normal 0.998632 0.0522904 0
    outer loop
      vertex -12.8116 18.1453 0
      vertex -12.7707 17.3642 3
      vertex -12.7707 17.3642 0
    endloop
  endfacet
  facet normal 0.838677 -0.544629 0
    outer loop
      vertex -12.6092 18.9008 3
      vertex -12.1832 19.5568 0
      vertex -12.1832 19.5568 3
    endloop
  endfacet
  facet normal 0.838677 -0.544629 0
    outer loop
      vertex -12.1832 19.5568 0
      vertex -12.6092 18.9008 3
      vertex -12.6092 18.9008 0
    endloop
  endfacet
  facet normal 0.933579 0.358371 0
    outer loop
      vertex -12.4904 16.634 3
      vertex -12.7707 17.3642 0
      vertex -12.7707 17.3642 3
    endloop
  endfacet
  facet normal 0.933579 0.358371 0
    outer loop
      vertex -12.7707 17.3642 0
      vertex -12.4904 16.634 3
      vertex -12.4904 16.634 0
    endloop
  endfacet
  facet normal -0.0522931 0.998632 0
    outer loop
      vertex -9.80554 15.4386 0
      vertex -10.5866 15.3977 3
      vertex -9.80554 15.4386 3
    endloop
  endfacet
  facet normal -0.0522931 0.998632 0
    outer loop
      vertex -10.5866 15.3977 3
      vertex -9.80554 15.4386 0
      vertex -10.5866 15.3977 0
    endloop
  endfacet
  facet normal -0.358362 0.933583 0
    outer loop
      vertex -9.07532 15.7189 0
      vertex -9.80554 15.4386 3
      vertex -9.07532 15.7189 3
    endloop
  endfacet
  facet normal -0.358362 0.933583 0
    outer loop
      vertex -9.80554 15.4386 3
      vertex -9.07532 15.7189 0
      vertex -9.80554 15.4386 0
    endloop
  endfacet
  facet normal 0.544687 0.838639 -0
    outer loop
      vertex -11.3422 15.6001 0
      vertex -11.9981 16.0261 3
      vertex -11.3422 15.6001 3
    endloop
  endfacet
  facet normal 0.544687 0.838639 0
    outer loop
      vertex -11.9981 16.0261 3
      vertex -11.3422 15.6001 0
      vertex -11.9981 16.0261 0
    endloop
  endfacet
  facet normal -0.933579 -0.358371 0
    outer loop
      vertex -7.87995 18.4038 0
      vertex -8.16025 19.134 3
      vertex -8.16025 19.134 0
    endloop
  endfacet
  facet normal -0.933579 -0.358371 0
    outer loop
      vertex -8.16025 19.134 3
      vertex -7.87995 18.4038 0
      vertex -7.87995 18.4038 3
    endloop
  endfacet
  facet normal -0.838677 0.544629 0
    outer loop
      vertex -8.46745 16.2111 0
      vertex -8.04145 16.8671 3
      vertex -8.04145 16.8671 0
    endloop
  endfacet
  facet normal -0.838677 0.544629 0
    outer loop
      vertex -8.04145 16.8671 3
      vertex -8.46745 16.2111 0
      vertex -8.46745 16.2111 3
    endloop
  endfacet
  facet normal 0.965937 -0.258777 0
    outer loop
      vertex -12.8116 18.1453 3
      vertex -12.6092 18.9008 0
      vertex -12.6092 18.9008 3
    endloop
  endfacet
  facet normal 0.965937 -0.258777 0
    outer loop
      vertex -12.6092 18.9008 0
      vertex -12.8116 18.1453 3
      vertex -12.8116 18.1453 0
    endloop
  endfacet
  facet normal 0.777126 0.629345 0
    outer loop
      vertex -11.9981 16.0261 3
      vertex -12.4904 16.634 0
      vertex -12.4904 16.634 3
    endloop
  endfacet
  facet normal 0.777126 0.629345 0
    outer loop
      vertex -12.4904 16.634 0
      vertex -11.9981 16.0261 3
      vertex -11.9981 16.0261 0
    endloop
  endfacet
  facet normal -0.629287 0.777173 0
    outer loop
      vertex -8.46745 16.2111 0
      vertex -9.07532 15.7189 3
      vertex -8.46745 16.2111 3
    endloop
  endfacet
  facet normal -0.629287 0.777173 0
    outer loop
      vertex -9.07532 15.7189 3
      vertex -8.46745 16.2111 0
      vertex -9.07532 15.7189 0
    endloop
  endfacet
  facet normal 0.258745 0.965946 -0
    outer loop
      vertex -10.5866 15.3977 0
      vertex -11.3422 15.6001 3
      vertex -10.5866 15.3977 3
    endloop
  endfacet
  facet normal 0.258745 0.965946 0
    outer loop
      vertex -11.3422 15.6001 3
      vertex -10.5866 15.3977 0
      vertex -11.3422 15.6001 0
    endloop
  endfacet
  facet normal 0.358371 -0.933579 0
    outer loop
      vertex -11.5753 20.049 0
      vertex -10.8451 20.3293 3
      vertex -11.5753 20.049 3
    endloop
  endfacet
  facet normal 0.358371 -0.933579 0
    outer loop
      vertex -10.8451 20.3293 3
      vertex -11.5753 20.049 0
      vertex -10.8451 20.3293 0
    endloop
  endfacet
  facet normal -0.258889 -0.965907 0
    outer loop
      vertex -10.064 20.3703 0
      vertex -9.30848 20.1678 3
      vertex -10.064 20.3703 3
    endloop
  endfacet
  facet normal -0.258889 -0.965907 -0
    outer loop
      vertex -9.30848 20.1678 3
      vertex -10.064 20.3703 0
      vertex -9.30848 20.1678 0
    endloop
  endfacet
  facet normal -0.544635 -0.838673 0
    outer loop
      vertex -9.30848 20.1678 0
      vertex -8.65249 19.7418 3
      vertex -9.30848 20.1678 3
    endloop
  endfacet
  facet normal -0.544635 -0.838673 -0
    outer loop
      vertex -8.65249 19.7418 3
      vertex -9.30848 20.1678 0
      vertex -8.65249 19.7418 0
    endloop
  endfacet
  facet normal 0.0524179 -0.998625 0
    outer loop
      vertex -10.8451 20.3293 0
      vertex -10.064 20.3703 3
      vertex -10.8451 20.3293 3
    endloop
  endfacet
  facet normal 0.0524179 -0.998625 0
    outer loop
      vertex -10.064 20.3703 3
      vertex -10.8451 20.3293 0
      vertex -10.064 20.3703 0
    endloop
  endfacet
  facet normal -0.965933 0.258792 0
    outer loop
      vertex -8.04145 16.8671 0
      vertex -7.83901 17.6227 3
      vertex -7.83901 17.6227 0
    endloop
  endfacet
  facet normal -0.965933 0.258792 0
    outer loop
      vertex -7.83901 17.6227 3
      vertex -8.04145 16.8671 0
      vertex -8.04145 16.8671 3
    endloop
  endfacet
  facet normal 0.358371 0.933579 -0
    outer loop
      vertex -10.8451 -20.3293 0
      vertex -11.5753 -20.049 3
      vertex -10.8451 -20.3293 3
    endloop
  endfacet
  facet normal 0.358371 0.933579 0
    outer loop
      vertex -11.5753 -20.049 3
      vertex -10.8451 -20.3293 0
      vertex -11.5753 -20.049 0
    endloop
  endfacet
  facet normal -0.629287 -0.777173 0
    outer loop
      vertex -9.07532 -15.7189 0
      vertex -8.46745 -16.2111 3
      vertex -9.07532 -15.7189 3
    endloop
  endfacet
  facet normal -0.629287 -0.777173 -0
    outer loop
      vertex -8.46745 -16.2111 3
      vertex -9.07532 -15.7189 0
      vertex -8.46745 -16.2111 0
    endloop
  endfacet
  facet normal 0.933579 -0.358371 0
    outer loop
      vertex -12.7707 -17.3642 3
      vertex -12.4904 -16.634 0
      vertex -12.4904 -16.634 3
    endloop
  endfacet
  facet normal 0.933579 -0.358371 0
    outer loop
      vertex -12.4904 -16.634 0
      vertex -12.7707 -17.3642 3
      vertex -12.7707 -17.3642 0
    endloop
  endfacet
  facet normal 0.0524179 0.998625 -0
    outer loop
      vertex -10.064 -20.3703 0
      vertex -10.8451 -20.3293 3
      vertex -10.064 -20.3703 3
    endloop
  endfacet
  facet normal 0.0524179 0.998625 0
    outer loop
      vertex -10.8451 -20.3293 3
      vertex -10.064 -20.3703 0
      vertex -10.8451 -20.3293 0
    endloop
  endfacet
  facet normal -0.544635 0.838673 0
    outer loop
      vertex -8.65249 -19.7418 0
      vertex -9.30848 -20.1678 3
      vertex -8.65249 -19.7418 3
    endloop
  endfacet
  facet normal -0.544635 0.838673 0
    outer loop
      vertex -9.30848 -20.1678 3
      vertex -8.65249 -19.7418 0
      vertex -9.30848 -20.1678 0
    endloop
  endfacet
  facet normal -0.965933 -0.258792 0
    outer loop
      vertex -7.83901 -17.6227 0
      vertex -8.04145 -16.8671 3
      vertex -8.04145 -16.8671 0
    endloop
  endfacet
  facet normal -0.965933 -0.258792 0
    outer loop
      vertex -8.04145 -16.8671 3
      vertex -7.83901 -17.6227 0
      vertex -7.83901 -17.6227 3
    endloop
  endfacet
  facet normal -0.838677 -0.544629 0
    outer loop
      vertex -8.04145 -16.8671 0
      vertex -8.46745 -16.2111 3
      vertex -8.46745 -16.2111 0
    endloop
  endfacet
  facet normal -0.838677 -0.544629 0
    outer loop
      vertex -8.46745 -16.2111 3
      vertex -8.04145 -16.8671 0
      vertex -8.04145 -16.8671 3
    endloop
  endfacet
  facet normal -0.998629 0.0523414 0
    outer loop
      vertex -7.87995 -18.4038 0
      vertex -7.83901 -17.6227 3
      vertex -7.83901 -17.6227 0
    endloop
  endfacet
  facet normal -0.998629 0.0523414 0
    outer loop
      vertex -7.83901 -17.6227 3
      vertex -7.87995 -18.4038 0
      vertex -7.87995 -18.4038 3
    endloop
  endfacet
  facet normal -0.258889 0.965907 0
    outer loop
      vertex -9.30848 -20.1678 0
      vertex -10.064 -20.3703 3
      vertex -9.30848 -20.1678 3
    endloop
  endfacet
  facet normal -0.258889 0.965907 0
    outer loop
      vertex -10.064 -20.3703 3
      vertex -9.30848 -20.1678 0
      vertex -10.064 -20.3703 0
    endloop
  endfacet
  facet normal -0.777113 0.629362 0
    outer loop
      vertex -8.65249 -19.7418 0
      vertex -8.16025 -19.134 3
      vertex -8.16025 -19.134 0
    endloop
  endfacet
  facet normal -0.777113 0.629362 0
    outer loop
      vertex -8.16025 -19.134 3
      vertex -8.65249 -19.7418 0
      vertex -8.65249 -19.7418 3
    endloop
  endfacet
  facet normal 0.838677 0.544629 0
    outer loop
      vertex -12.1832 -19.5568 3
      vertex -12.6092 -18.9008 0
      vertex -12.6092 -18.9008 3
    endloop
  endfacet
  facet normal 0.838677 0.544629 0
    outer loop
      vertex -12.6092 -18.9008 0
      vertex -12.1832 -19.5568 3
      vertex -12.1832 -19.5568 0
    endloop
  endfacet
  facet normal 0.629268 0.777188 -0
    outer loop
      vertex -11.5753 -20.049 0
      vertex -12.1832 -19.5568 3
      vertex -11.5753 -20.049 3
    endloop
  endfacet
  facet normal 0.629268 0.777188 0
    outer loop
      vertex -12.1832 -19.5568 3
      vertex -11.5753 -20.049 0
      vertex -12.1832 -19.5568 0
    endloop
  endfacet
  facet normal -0.933579 0.358371 0
    outer loop
      vertex -8.16025 -19.134 0
      vertex -7.87995 -18.4038 3
      vertex -7.87995 -18.4038 0
    endloop
  endfacet
  facet normal -0.933579 0.358371 0
    outer loop
      vertex -7.87995 -18.4038 3
      vertex -8.16025 -19.134 0
      vertex -8.16025 -19.134 3
    endloop
  endfacet
  facet normal 0.544687 -0.838639 0
    outer loop
      vertex -11.9981 -16.0261 0
      vertex -11.3422 -15.6001 3
      vertex -11.9981 -16.0261 3
    endloop
  endfacet
  facet normal 0.544687 -0.838639 0
    outer loop
      vertex -11.3422 -15.6001 3
      vertex -11.9981 -16.0261 0
      vertex -11.3422 -15.6001 0
    endloop
  endfacet
  facet normal -0.358362 -0.933583 0
    outer loop
      vertex -9.80554 -15.4386 0
      vertex -9.07532 -15.7189 3
      vertex -9.80554 -15.4386 3
    endloop
  endfacet
  facet normal -0.358362 -0.933583 -0
    outer loop
      vertex -9.07532 -15.7189 3
      vertex -9.80554 -15.4386 0
      vertex -9.07532 -15.7189 0
    endloop
  endfacet
  facet normal 0.258745 -0.965946 0
    outer loop
      vertex -11.3422 -15.6001 0
      vertex -10.5866 -15.3977 3
      vertex -11.3422 -15.6001 3
    endloop
  endfacet
  facet normal 0.258745 -0.965946 0
    outer loop
      vertex -10.5866 -15.3977 3
      vertex -11.3422 -15.6001 0
      vertex -10.5866 -15.3977 0
    endloop
  endfacet
  facet normal 0.965937 0.258777 0
    outer loop
      vertex -12.6092 -18.9008 3
      vertex -12.8116 -18.1453 0
      vertex -12.8116 -18.1453 3
    endloop
  endfacet
  facet normal 0.965937 0.258777 0
    outer loop
      vertex -12.8116 -18.1453 0
      vertex -12.6092 -18.9008 3
      vertex -12.6092 -18.9008 0
    endloop
  endfacet
  facet normal 0.998632 -0.0522904 0
    outer loop
      vertex -12.8116 -18.1453 3
      vertex -12.7707 -17.3642 0
      vertex -12.7707 -17.3642 3
    endloop
  endfacet
  facet normal 0.998632 -0.0522904 0
    outer loop
      vertex -12.7707 -17.3642 0
      vertex -12.8116 -18.1453 3
      vertex -12.8116 -18.1453 0
    endloop
  endfacet
  facet normal 0.777126 -0.629345 0
    outer loop
      vertex -12.4904 -16.634 3
      vertex -11.9981 -16.0261 0
      vertex -11.9981 -16.0261 3
    endloop
  endfacet
  facet normal 0.777126 -0.629345 0
    outer loop
      vertex -11.9981 -16.0261 0
      vertex -12.4904 -16.634 3
      vertex -12.4904 -16.634 0
    endloop
  endfacet
  facet normal -0.0522931 -0.998632 0
    outer loop
      vertex -10.5866 -15.3977 0
      vertex -9.80554 -15.4386 3
      vertex -10.5866 -15.3977 3
    endloop
  endfacet
  facet normal -0.0522931 -0.998632 -0
    outer loop
      vertex -9.80554 -15.4386 3
      vertex -10.5866 -15.3977 0
      vertex -9.80554 -15.4386 0
    endloop
  endfacet
  facet normal 0.866026 -0.5 0
    outer loop
      vertex 25 -43.3013 120
      vertex 50 0 0
      vertex 50 0 120
    endloop
  endfacet
  facet normal 0.866026 -0.5 0
    outer loop
      vertex 50 0 0
      vertex 25 -43.3013 120
      vertex 25 -43.3013 0
    endloop
  endfacet
  facet normal -0 0 -1
    outer loop
      vertex 18.273 -0.772542 0
      vertex -8.46745 -16.2111 0
      vertex 18.1506 0 0
    endloop
  endfacet
  facet normal 0 0 -1
    outer loop
      vertex 18.1506 0 0
      vertex -8.04145 16.8671 0
      vertex -7.83901 17.6227 0
    endloop
  endfacet
  facet normal 0 0 -1
    outer loop
      vertex -9.07532 -15.7189 0
      vertex 18.1506 0 0
      vertex -8.46745 -16.2111 0
    endloop
  endfacet
  facet normal 0 0 -1
    outer loop
      vertex 18.1506 0 0
      vertex -8.46745 16.2111 0
      vertex -8.04145 16.8671 0
    endloop
  endfacet
  facet normal 0 0 -1
    outer loop
      vertex -9.07532 15.7189 0
      vertex 18.1506 0 0
      vertex -9.07532 -15.7189 0
    endloop
  endfacet
  facet normal 0 0 -1
    outer loop
      vertex 18.1506 0 0
      vertex -9.07532 15.7189 0
      vertex -8.46745 16.2111 0
    endloop
  endfacet
  facet normal 0 0 -1
    outer loop
      vertex -9.80554 -15.4386 0
      vertex -9.07532 15.7189 0
      vertex -9.07532 -15.7189 0
    endloop
  endfacet
  facet normal 0 0 -1
    outer loop
      vertex -9.80554 -15.4386 0
      vertex -9.80554 15.4386 0
      vertex -9.07532 15.7189 0
    endloop
  endfacet
  facet normal 0 0 -1
    outer loop
      vertex -10.5866 -15.3977 0
      vertex -9.80554 15.4386 0
      vertex -9.80554 -15.4386 0
    endloop
  endfacet
  facet normal 0 0 -1
    outer loop
      vertex -10.5866 -15.3977 0
      vertex -10.5866 15.3977 0
      vertex -9.80554 15.4386 0
    endloop
  endfacet
  facet normal 0 0 -1
    outer loop
      vertex -11.3422 -15.6001 0
      vertex -10.5866 15.3977 0
      vertex -10.5866 -15.3977 0
    endloop
  endfacet
  facet normal 0 0 -1
    outer loop
      vertex -11.3422 -15.6001 0
      vertex -11.3422 15.6001 0
      vertex -10.5866 15.3977 0
    endloop
  endfacet
  facet normal 0 0 -1
    outer loop
      vertex -11.9981 -16.0261 0
      vertex -11.3422 15.6001 0
      vertex -11.3422 -15.6001 0
    endloop
  endfacet
  facet normal 0 0 -1
    outer loop
      vertex -11.9981 -16.0261 0
      vertex -11.9981 16.0261 0
      vertex -11.3422 15.6001 0
    endloop
  endfacet
  facet normal 0 0 -1
    outer loop
      vertex -50 0 0
      vertex -11.9981 -16.0261 0
      vertex -12.4904 -16.634 0
    endloop
  endfacet
  facet normal 0 0 -1
    outer loop
      vertex -11.9981 -16.0261 0
      vertex -50 0 0
      vertex -11.9981 16.0261 0
    endloop
  endfacet
  facet normal 0 0 -1
    outer loop
      vertex -50 0 0
      vertex -12.4904 -16.634 0
      vertex -12.7707 -17.3642 0
    endloop
  endfacet
  facet normal -0 0 -1
    outer loop
      vertex -11.9981 16.0261 0
      vertex -50 0 0
      vertex -12.4904 16.634 0
    endloop
  endfacet
  facet normal 0 0 -1
    outer loop
      vertex -50 0 0
      vertex -12.7707 -17.3642 0
      vertex -12.8116 -18.1453 0
    endloop
  endfacet
  facet normal -0 0 -1
    outer loop
      vertex -12.4904 16.634 0
      vertex -50 0 0
      vertex -12.7707 17.3642 0
    endloop
  endfacet
  facet normal 0 0 -1
    outer loop
      vertex 22.1201 -2.02254 0
      vertex 50 0 0
      vertex 25 -43.3013 0
    endloop
  endfacet
  facet normal 0 0 -1
    outer loop
      vertex 23.0283 0.772542 0
      vertex 50 0 0
      vertex 23.1506 0 0
    endloop
  endfacet
  facet normal -0 0 -1
    outer loop
      vertex 50 0 0
      vertex 23.0283 -0.772542 0
      vertex 23.1506 0 0
    endloop
  endfacet
  facet normal 0 0 -1
    outer loop
      vertex 50 0 0
      vertex 22.6732 -1.46946 0
      vertex 23.0283 -0.772542 0
    endloop
  endfacet
  facet normal 0 0 -1
    outer loop
      vertex 50 0 0
      vertex 22.1201 -2.02254 0
      vertex 22.6732 -1.46946 0
    endloop
  endfacet
  facet normal 0 0 -1
    outer loop
      vertex 25 -43.3013 0
      vertex 21.4232 -2.37764 0
      vertex 22.1201 -2.02254 0
    endloop
  endfacet
  facet normal 0 0 -1
    outer loop
      vertex 25 -43.3013 0
      vertex 20.6506 -2.5 0
      vertex 21.4232 -2.37764 0
    endloop
  endfacet
  facet normal 0 0 -1
    outer loop
      vertex 25 -43.3013 0
      vertex 19.8781 -2.37764 0
      vertex 20.6506 -2.5 0
    endloop
  endfacet
  facet normal 0 0 -1
    outer loop
      vertex -7.87995 -18.4038 0
      vertex 19.8781 -2.37764 0
      vertex 25 -43.3013 0
    endloop
  endfacet
  facet normal -0 0 -1
    outer loop
      vertex 19.8781 -2.37764 0
      vertex -7.87995 -18.4038 0
      vertex 19.1812 -2.02254 0
    endloop
  endfacet
  facet normal 0 -0 -1
    outer loop
      vertex -7.83901 -17.6227 0
      vertex 19.1812 -2.02254 0
      vertex -7.87995 -18.4038 0
    endloop
  endfacet
  facet normal -0 0 -1
    outer loop
      vertex 19.1812 -2.02254 0
      vertex -7.83901 -17.6227 0
      vertex 18.6281 -1.46946 0
    endloop
  endfacet
  facet normal 0 0 -1
    outer loop
      vertex -8.04145 -16.8671 0
      vertex 18.6281 -1.46946 0
      vertex -7.83901 -17.6227 0
    endloop
  endfacet
  facet normal -0 0 -1
    outer loop
      vertex 18.6281 -1.46946 0
      vertex -8.04145 -16.8671 0
      vertex 18.273 -0.772542 0
    endloop
  endfacet
  facet normal 0 0 -1
    outer loop
      vertex 25 -43.3013 0
      vertex -8.16025 -19.134 0
      vertex -7.87995 -18.4038 0
    endloop
  endfacet
  facet normal 0 0 -1
    outer loop
      vertex 25 -43.3013 0
      vertex -8.65249 -19.7418 0
      vertex -8.16025 -19.134 0
    endloop
  endfacet
  facet normal 0 0 -1
    outer loop
      vertex 25 -43.3013 0
      vertex -9.30848 -20.1678 0
      vertex -8.65249 -19.7418 0
    endloop
  endfacet
  facet normal 0 0 -1
    outer loop
      vertex -25 -43.3013 0
      vertex -9.30848 -20.1678 0
      vertex 25 -43.3013 0
    endloop
  endfacet
  facet normal 0 0 -1
    outer loop
      vertex -9.30848 -20.1678 0
      vertex -25 -43.3013 0
      vertex -10.064 -20.3703 0
    endloop
  endfacet
  facet normal -0 0 -1
    outer loop
      vertex -10.064 -20.3703 0
      vertex -25 -43.3013 0
      vertex -10.8451 -20.3293 0
    endloop
  endfacet
  facet normal 0 0 -1
    outer loop
      vertex -50 0 0
      vertex -12.8116 -18.1453 0
      vertex -25 -43.3013 0
    endloop
  endfacet
  facet normal -0 0 -1
    outer loop
      vertex -12.6092 -18.9008 0
      vertex -25 -43.3013 0
      vertex -12.8116 -18.1453 0
    endloop
  endfacet
  facet normal -0 0 -1
    outer loop
      vertex -12.1832 -19.5568 0
      vertex -25 -43.3013 0
      vertex -12.6092 -18.9008 0
    endloop
  endfacet
  facet normal -0 0 -1
    outer loop
      vertex -11.5753 -20.049 0
      vertex -25 -43.3013 0
      vertex -12.1832 -19.5568 0
    endloop
  endfacet
  facet normal -0 0 -1
    outer loop
      vertex -10.8451 -20.3293 0
      vertex -25 -43.3013 0
      vertex -11.5753 -20.049 0
    endloop
  endfacet
  facet normal 0 0 -1
    outer loop
      vertex 22.6732 1.46946 0
      vertex 50 0 0
      vertex 23.0283 0.772542 0
    endloop
  endfacet
  facet normal 0 0 -1
    outer loop
      vertex 22.1201 2.02254 0
      vertex 50 0 0
      vertex 22.6732 1.46946 0
    endloop
  endfacet
  facet normal 0 0 -1
    outer loop
      vertex 50 0 0
      vertex 22.1201 2.02254 0
      vertex 25 43.3013 0
    endloop
  endfacet
  facet normal 0 0 -1
    outer loop
      vertex 21.4232 2.37764 0
      vertex 25 43.3013 0
      vertex 22.1201 2.02254 0
    endloop
  endfacet
  facet normal 0 0 -1
    outer loop
      vertex 20.6506 2.5 0
      vertex 25 43.3013 0
      vertex 21.4232 2.37764 0
    endloop
  endfacet
  facet normal 0 0 -1
    outer loop
      vertex 19.8781 2.37764 0
      vertex 25 43.3013 0
      vertex 20.6506 2.5 0
    endloop
  endfacet
  facet normal 0 0 -1
    outer loop
      vertex -7.87995 18.4038 0
      vertex 19.8781 2.37764 0
      vertex 19.1812 2.02254 0
    endloop
  endfacet
  facet normal 0 0 -1
    outer loop
      vertex -7.83901 17.6227 0
      vertex 19.1812 2.02254 0
      vertex 18.6281 1.46946 0
    endloop
  endfacet
  facet normal 0 0 -1
    outer loop
      vertex -7.83901 17.6227 0
      vertex 18.6281 1.46946 0
      vertex 18.273 0.772542 0
    endloop
  endfacet
  facet normal 0 0 -1
    outer loop
      vertex -7.83901 17.6227 0
      vertex 18.273 0.772542 0
      vertex 18.1506 0 0
    endloop
  endfacet
  facet normal 0 0 -1
    outer loop
      vertex -8.46745 -16.2111 0
      vertex 18.273 -0.772542 0
      vertex -8.04145 -16.8671 0
    endloop
  endfacet
  facet normal 0 0 -1
    outer loop
      vertex 19.1812 2.02254 0
      vertex -7.83901 17.6227 0
      vertex -7.87995 18.4038 0
    endloop
  endfacet
  facet normal 0 0 -1
    outer loop
      vertex 19.8781 2.37764 0
      vertex -7.87995 18.4038 0
      vertex 25 43.3013 0
    endloop
  endfacet
  facet normal 0 0 -1
    outer loop
      vertex -8.16025 19.134 0
      vertex 25 43.3013 0
      vertex -7.87995 18.4038 0
    endloop
  endfacet
  facet normal 0 0 -1
    outer loop
      vertex -8.65249 19.7418 0
      vertex 25 43.3013 0
      vertex -8.16025 19.134 0
    endloop
  endfacet
  facet normal 0 0 -1
    outer loop
      vertex -9.30848 20.1678 0
      vertex 25 43.3013 0
      vertex -8.65249 19.7418 0
    endloop
  endfacet
  facet normal 0 0 -1
    outer loop
      vertex -25 43.3013 0
      vertex -9.30848 20.1678 0
      vertex -10.064 20.3703 0
    endloop
  endfacet
  facet normal 0 0 -1
    outer loop
      vertex -25 43.3013 0
      vertex -10.064 20.3703 0
      vertex -10.8451 20.3293 0
    endloop
  endfacet
  facet normal 0 0 -1
    outer loop
      vertex -25 43.3013 0
      vertex -10.8451 20.3293 0
      vertex -11.5753 20.049 0
    endloop
  endfacet
  facet normal 0 0 -1
    outer loop
      vertex -9.30848 20.1678 0
      vertex -25 43.3013 0
      vertex 25 43.3013 0
    endloop
  endfacet
  facet normal 0 0 -1
    outer loop
      vertex -12.1832 19.5568 0
      vertex -25 43.3013 0
      vertex -11.5753 20.049 0
    endloop
  endfacet
  facet normal 0 0 -1
    outer loop
      vertex -12.6092 18.9008 0
      vertex -25 43.3013 0
      vertex -12.1832 19.5568 0
    endloop
  endfacet
  facet normal 0 0 -1
    outer loop
      vertex -12.8116 18.1453 0
      vertex -25 43.3013 0
      vertex -12.6092 18.9008 0
    endloop
  endfacet
  facet normal -0 0 -1
    outer loop
      vertex -12.7707 17.3642 0
      vertex -50 0 0
      vertex -12.8116 18.1453 0
    endloop
  endfacet
  facet normal -0 0 -1
    outer loop
      vertex -12.8116 18.1453 0
      vertex -50 0 0
      vertex -25 43.3013 0
    endloop
  endfacet
  facet normal 0.866026 0.5 0
    outer loop
      vertex 50 0 120
      vertex 25 43.3013 0
      vertex 25 43.3013 120
    endloop
  endfacet
  facet normal 0.866026 0.5 0
    outer loop
      vertex 25 43.3013 0
      vertex 50 0 120
      vertex 50 0 0
    endloop
  endfacet
  facet normal -0.866026 -0.5 0
    outer loop
      vertex -25 -43.3013 0
      vertex -50 0 120
      vertex -50 0 0
    endloop
  endfacet
  facet normal -0.866026 -0.5 0
    outer loop
      vertex -50 0 120
      vertex -25 -43.3013 0
      vertex -25 -43.3013 120
    endloop
  endfacet
  facet normal 0 0 1
    outer loop
      vertex 25 43.3013 120
      vertex 47.6906 0 120
      vertex 50 0 120
    endloop
  endfacet
  facet normal 0 0 1
    outer loop
      vertex 25 43.3013 120
      vertex 23.8453 41.3013 120
      vertex 47.6906 0 120
    endloop
  endfacet
  facet normal 0 0 1
    outer loop
      vertex 25 43.3013 120
      vertex -23.8453 41.3013 120
      vertex 23.8453 41.3013 120
    endloop
  endfacet
  facet normal -0 0 1
    outer loop
      vertex -25 43.3013 120
      vertex -23.8453 41.3013 120
      vertex 25 43.3013 120
    endloop
  endfacet
  facet normal 0 0 1
    outer loop
      vertex -25 43.3013 120
      vertex -47.6906 0 120
      vertex -23.8453 41.3013 120
    endloop
  endfacet
  facet normal 0 -0 1
    outer loop
      vertex -47.6906 0 120
      vertex -25 43.3013 120
      vertex -50 0 120
    endloop
  endfacet
  facet normal -0 0 1
    outer loop
      vertex 47.6906 0 120
      vertex 25 -43.3013 120
      vertex 50 0 120
    endloop
  endfacet
  facet normal -0 0 1
    outer loop
      vertex 23.8453 -41.3013 120
      vertex 25 -43.3013 120
      vertex 47.6906 0 120
    endloop
  endfacet
  facet normal -0 0 1
    outer loop
      vertex -23.8453 -41.3013 120
      vertex 25 -43.3013 120
      vertex 23.8453 -41.3013 120
    endloop
  endfacet
  facet normal 0 0 1
    outer loop
      vertex -23.8453 -41.3013 120
      vertex -25 -43.3013 120
      vertex 25 -43.3013 120
    endloop
  endfacet
  facet normal 0 0 1
    outer loop
      vertex -47.6906 0 120
      vertex -25 -43.3013 120
      vertex -23.8453 -41.3013 120
    endloop
  endfacet
  facet normal 0 0 1
    outer loop
      vertex -25 -43.3013 120
      vertex -47.6906 0 120
      vertex -50 0 120
    endloop
  endfacet
  facet normal 0 -1 0
    outer loop
      vertex -25 -43.3013 0
      vertex 25 -43.3013 120
      vertex -25 -43.3013 120
    endloop
  endfacet
  facet normal 0 -1 -0
    outer loop
      vertex 25 -43.3013 120
      vertex -25 -43.3013 0
      vertex 25 -43.3013 0
    endloop
  endfacet
  facet normal -0.866026 0.5 0
    outer loop
      vertex -50 0 0
      vertex -25 43.3013 120
      vertex -25 43.3013 0
    endloop
  endfacet
  facet normal -0.866026 0.5 0
    outer loop
      vertex -25 43.3013 120
      vertex -50 0 0
      vertex -50 0 120
    endloop
  endfacet
  facet normal 0 1 -0
    outer loop
      vertex 25 43.3013 0
      vertex -25 43.3013 120
      vertex 25 43.3013 120
    endloop
  endfacet
  facet normal 0 1 0
    outer loop
      vertex -25 43.3013 120
      vertex 25 43.3013 0
      vertex -25 43.3013 0
    endloop
  endfacet
  facet normal 0.866031 -0.49999 0
    outer loop
      vertex -46.5586 1.96063 63
      vertex -45.3812 4 58.1774
      vertex -45.3812 4 61.8226
    endloop
  endfacet
  facet normal 0.866031 -0.49999 0
    outer loop
      vertex -45.3812 4 58.1774
      vertex -46.5586 1.96063 63
      vertex -46.5586 1.96063 57
    endloop
  endfacet
  facet normal 0.866026 -0.5 0
    outer loop
      vertex -45.3812 4 61.8226
      vertex -23.8453 41.3013 120
      vertex -45.3812 4 63
    endloop
  endfacet
  facet normal 0.866026 -0.5 8.17403e-09
    outer loop
      vertex -47.6906 0 120
      vertex -45.3812 4 63
      vertex -23.8453 41.3013 120
    endloop
  endfacet
  facet normal 0.86602 -0.50001 0
    outer loop
      vertex -46.5586 1.96063 63
      vertex -47.6906 0 120
      vertex -46.5586 1.96063 57
    endloop
  endfacet
  facet normal 0.866031 -0.49999 9.02044e-07
    outer loop
      vertex -45.3812 4 63
      vertex -47.6906 0 120
      vertex -46.5586 1.96063 63
    endloop
  endfacet
  facet normal 0.866026 -0.5 0
    outer loop
      vertex -23.8453 41.3013 120
      vertex -45.3812 4 61.8226
      vertex -23.8453 41.3013 3
    endloop
  endfacet
  facet normal 0.866026 -0.5 0
    outer loop
      vertex -45.3812 4 58.1774
      vertex -23.8453 41.3013 3
      vertex -45.3812 4 61.8226
    endloop
  endfacet
  facet normal 0.866026 -0.5 0
    outer loop
      vertex -45.3812 4 57
      vertex -23.8453 41.3013 3
      vertex -45.3812 4 58.1774
    endloop
  endfacet
  facet normal 0.866031 -0.49999 -9.52158e-07
    outer loop
      vertex -47.6906 0 3
      vertex -45.3812 4 57
      vertex -46.5586 1.96063 57
    endloop
  endfacet
  facet normal 0.866026 -0.5 -8.62814e-09
    outer loop
      vertex -45.3812 4 57
      vertex -47.6906 0 3
      vertex -23.8453 41.3013 3
    endloop
  endfacet
  facet normal 0.86602 -0.50001 0
    outer loop
      vertex -47.6906 0 3
      vertex -46.5586 1.96063 57
      vertex -47.6906 0 120
    endloop
  endfacet
  facet normal 0 -1 0
    outer loop
      vertex -23.8453 41.3013 120
      vertex 19.2265 41.3013 63
      vertex 23.8453 41.3013 120
    endloop
  endfacet
  facet normal 0 -1 0
    outer loop
      vertex -23.8453 41.3013 120
      vertex 19.2265 41.3013 61.8226
      vertex 19.2265 41.3013 63
    endloop
  endfacet
  facet normal 0 -1 0
    outer loop
      vertex -23.8453 41.3013 3
      vertex 19.2265 41.3013 61.8226
      vertex -23.8453 41.3013 120
    endloop
  endfacet
  facet normal 0 -1 -0
    outer loop
      vertex 19.2265 41.3013 61.8226
      vertex -23.8453 41.3013 3
      vertex 19.2265 41.3013 58.1774
    endloop
  endfacet
  facet normal 0 -1 0
    outer loop
      vertex 23.8453 41.3013 3
      vertex 19.2265 41.3013 57
      vertex -23.8453 41.3013 3
    endloop
  endfacet
  facet normal 0 -1 -0
    outer loop
      vertex 19.2265 41.3013 58.1774
      vertex -23.8453 41.3013 3
      vertex 19.2265 41.3013 57
    endloop
  endfacet
  facet normal 0 -1 0
    outer loop
      vertex 21.5814 41.3013 63
      vertex 23.8453 41.3013 120
      vertex 19.2265 41.3013 63
    endloop
  endfacet
  facet normal 0 -1 0
    outer loop
      vertex 19.2265 41.3013 58.1774
      vertex 21.5814 41.3013 63
      vertex 19.2265 41.3013 61.8226
    endloop
  endfacet
  facet normal 0 -1 0
    outer loop
      vertex 21.5814 41.3013 57
      vertex 21.5814 41.3013 63
      vertex 19.2265 41.3013 58.1774
    endloop
  endfacet
  facet normal 0 -1 0
    outer loop
      vertex 21.5814 41.3013 57
      vertex 23.8453 41.3013 120
      vertex 21.5814 41.3013 63
    endloop
  endfacet
  facet normal 0 -1 0
    outer loop
      vertex 21.5814 41.3013 57
      vertex 23.8453 41.3013 3
      vertex 23.8453 41.3013 120
    endloop
  endfacet
  facet normal 0 -1 0
    outer loop
      vertex 19.2265 41.3013 57
      vertex 23.8453 41.3013 3
      vertex 21.5814 41.3013 57
    endloop
  endfacet
  facet normal 0 0 1
    outer loop
      vertex 18.273 0.772542 3
      vertex -8.46745 16.2111 3
      vertex 18.1506 0 3
    endloop
  endfacet
  facet normal 0 0 1
    outer loop
      vertex 18.1506 0 3
      vertex -8.04145 -16.8671 3
      vertex -7.83901 -17.6227 3
    endloop
  endfacet
  facet normal -0 0 1
    outer loop
      vertex -9.07532 15.7189 3
      vertex 18.1506 0 3
      vertex -8.46745 16.2111 3
    endloop
  endfacet
  facet normal 0 0 1
    outer loop
      vertex 18.1506 0 3
      vertex -8.46745 -16.2111 3
      vertex -8.04145 -16.8671 3
    endloop
  endfacet
  facet normal 0 0 1
    outer loop
      vertex -9.07532 -15.7189 3
      vertex 18.1506 0 3
      vertex -9.07532 15.7189 3
    endloop
  endfacet
  facet normal 0 0 1
    outer loop
      vertex 18.1506 0 3
      vertex -9.07532 -15.7189 3
      vertex -8.46745 -16.2111 3
    endloop
  endfacet
  facet normal -0 0 1
    outer loop
      vertex -9.80554 15.4386 3
      vertex -9.07532 -15.7189 3
      vertex -9.07532 15.7189 3
    endloop
  endfacet
  facet normal 0 0 1
    outer loop
      vertex -9.80554 15.4386 3
      vertex -9.80554 -15.4386 3
      vertex -9.07532 -15.7189 3
    endloop
  endfacet
  facet normal -0 0 1
    outer loop
      vertex -10.5866 15.3977 3
      vertex -9.80554 -15.4386 3
      vertex -9.80554 15.4386 3
    endloop
  endfacet
  facet normal 0 0 1
    outer loop
      vertex -10.5866 15.3977 3
      vertex -10.5866 -15.3977 3
      vertex -9.80554 -15.4386 3
    endloop
  endfacet
  facet normal 0 0 1
    outer loop
      vertex -11.3422 15.6001 3
      vertex -10.5866 -15.3977 3
      vertex -10.5866 15.3977 3
    endloop
  endfacet
  facet normal 0 0 1
    outer loop
      vertex -11.3422 15.6001 3
      vertex -11.3422 -15.6001 3
      vertex -10.5866 -15.3977 3
    endloop
  endfacet
  facet normal 0 0 1
    outer loop
      vertex -11.9981 16.0261 3
      vertex -11.3422 -15.6001 3
      vertex -11.3422 15.6001 3
    endloop
  endfacet
  facet normal 0 0 1
    outer loop
      vertex -11.9981 16.0261 3
      vertex -11.9981 -16.0261 3
      vertex -11.3422 -15.6001 3
    endloop
  endfacet
  facet normal 0 0 1
    outer loop
      vertex -47.6906 0 3
      vertex -11.9981 16.0261 3
      vertex -12.4904 16.634 3
    endloop
  endfacet
  facet normal 0 0 1
    outer loop
      vertex -11.9981 16.0261 3
      vertex -47.6906 0 3
      vertex -11.9981 -16.0261 3
    endloop
  endfacet
  facet normal 0 0 1
    outer loop
      vertex -47.6906 0 3
      vertex -12.4904 16.634 3
      vertex -12.7707 17.3642 3
    endloop
  endfacet
  facet normal 0 0 1
    outer loop
      vertex -11.9981 -16.0261 3
      vertex -47.6906 0 3
      vertex -12.4904 -16.634 3
    endloop
  endfacet
  facet normal 0 0 1
    outer loop
      vertex -47.6906 0 3
      vertex -12.7707 17.3642 3
      vertex -12.8116 18.1453 3
    endloop
  endfacet
  facet normal 0 0 1
    outer loop
      vertex -12.4904 -16.634 3
      vertex -47.6906 0 3
      vertex -12.7707 -17.3642 3
    endloop
  endfacet
  facet normal -0 0 1
    outer loop
      vertex 22.1201 2.02254 3
      vertex 47.6906 0 3
      vertex 23.8453 41.3013 3
    endloop
  endfacet
  facet normal 0 0 1
    outer loop
      vertex 23.0283 -0.772542 3
      vertex 47.6906 0 3
      vertex 23.1506 0 3
    endloop
  endfacet
  facet normal 0 0 1
    outer loop
      vertex 47.6906 0 3
      vertex 23.0283 0.772542 3
      vertex 23.1506 0 3
    endloop
  endfacet
  facet normal 0 0 1
    outer loop
      vertex 47.6906 0 3
      vertex 22.6732 1.46946 3
      vertex 23.0283 0.772542 3
    endloop
  endfacet
  facet normal 0 0 1
    outer loop
      vertex 47.6906 0 3
      vertex 22.1201 2.02254 3
      vertex 22.6732 1.46946 3
    endloop
  endfacet
  facet normal 0 0 1
    outer loop
      vertex 23.8453 41.3013 3
      vertex 21.4232 2.37764 3
      vertex 22.1201 2.02254 3
    endloop
  endfacet
  facet normal 0 0 1
    outer loop
      vertex 23.8453 41.3013 3
      vertex 20.6506 2.5 3
      vertex 21.4232 2.37764 3
    endloop
  endfacet
  facet normal 0 0 1
    outer loop
      vertex 23.8453 41.3013 3
      vertex 19.8781 2.37764 3
      vertex 20.6506 2.5 3
    endloop
  endfacet
  facet normal -0 0 1
    outer loop
      vertex -7.87995 18.4038 3
      vertex 19.8781 2.37764 3
      vertex 23.8453 41.3013 3
    endloop
  endfacet
  facet normal 0 0 1
    outer loop
      vertex 19.8781 2.37764 3
      vertex -7.87995 18.4038 3
      vertex 19.1812 2.02254 3
    endloop
  endfacet
  facet normal -0 -0 1
    outer loop
      vertex -7.83901 17.6227 3
      vertex 19.1812 2.02254 3
      vertex -7.87995 18.4038 3
    endloop
  endfacet
  facet normal 0 0 1
    outer loop
      vertex 19.1812 2.02254 3
      vertex -7.83901 17.6227 3
      vertex 18.6281 1.46946 3
    endloop
  endfacet
  facet normal -0 0 1
    outer loop
      vertex -8.04145 16.8671 3
      vertex 18.6281 1.46946 3
      vertex -7.83901 17.6227 3
    endloop
  endfacet
  facet normal 0 0 1
    outer loop
      vertex 18.6281 1.46946 3
      vertex -8.04145 16.8671 3
      vertex 18.273 0.772542 3
    endloop
  endfacet
  facet normal 0 0 1
    outer loop
      vertex 23.8453 41.3013 3
      vertex -8.16025 19.134 3
      vertex -7.87995 18.4038 3
    endloop
  endfacet
  facet normal 0 0 1
    outer loop
      vertex 23.8453 41.3013 3
      vertex -8.65249 19.7418 3
      vertex -8.16025 19.134 3
    endloop
  endfacet
  facet normal 0 0 1
    outer loop
      vertex 23.8453 41.3013 3
      vertex -9.30848 20.1678 3
      vertex -8.65249 19.7418 3
    endloop
  endfacet
  facet normal -0 0 1
    outer loop
      vertex -23.8453 41.3013 3
      vertex -9.30848 20.1678 3
      vertex 23.8453 41.3013 3
    endloop
  endfacet
  facet normal 0 0 1
    outer loop
      vertex -9.30848 20.1678 3
      vertex -23.8453 41.3013 3
      vertex -10.064 20.3703 3
    endloop
  endfacet
  facet normal 0 0 1
    outer loop
      vertex -10.064 20.3703 3
      vertex -23.8453 41.3013 3
      vertex -10.8451 20.3293 3
    endloop
  endfacet
  facet normal 0 0 1
    outer loop
      vertex -47.6906 0 3
      vertex -12.8116 18.1453 3
      vertex -23.8453 41.3013 3
    endloop
  endfacet
  facet normal 0 0 1
    outer loop
      vertex -12.6092 18.9008 3
      vertex -23.8453 41.3013 3
      vertex -12.8116 18.1453 3
    endloop
  endfacet
  facet normal 0 0 1
    outer loop
      vertex -12.1832 19.5568 3
      vertex -23.8453 41.3013 3
      vertex -12.6092 18.9008 3
    endloop
  endfacet
  facet normal 0 0 1
    outer loop
      vertex -11.5753 20.049 3
      vertex -23.8453 41.3013 3
      vertex -12.1832 19.5568 3
    endloop
  endfacet
  facet normal 0 0 1
    outer loop
      vertex -10.8451 20.3293 3
      vertex -23.8453 41.3013 3
      vertex -11.5753 20.049 3
    endloop
  endfacet
  facet normal 0 0 1
    outer loop
      vertex 22.6732 -1.46946 3
      vertex 47.6906 0 3
      vertex 23.0283 -0.772542 3
    endloop
  endfacet
  facet normal 0 0 1
    outer loop
      vertex 22.1201 -2.02254 3
      vertex 47.6906 0 3
      vertex 22.6732 -1.46946 3
    endloop
  endfacet
  facet normal 0 0 1
    outer loop
      vertex 47.6906 0 3
      vertex 22.1201 -2.02254 3
      vertex 23.8453 -41.3013 3
    endloop
  endfacet
  facet normal -0 0 1
    outer loop
      vertex 21.4232 -2.37764 3
      vertex 23.8453 -41.3013 3
      vertex 22.1201 -2.02254 3
    endloop
  endfacet
  facet normal -0 0 1
    outer loop
      vertex 20.6506 -2.5 3
      vertex 23.8453 -41.3013 3
      vertex 21.4232 -2.37764 3
    endloop
  endfacet
  facet normal 0 0 1
    outer loop
      vertex 19.8781 -2.37764 3
      vertex 23.8453 -41.3013 3
      vertex 20.6506 -2.5 3
    endloop
  endfacet
  facet normal 0 0 1
    outer loop
      vertex -7.87995 -18.4038 3
      vertex 19.8781 -2.37764 3
      vertex 19.1812 -2.02254 3
    endloop
  endfacet
  facet normal 0 0 1
    outer loop
      vertex -7.83901 -17.6227 3
      vertex 19.1812 -2.02254 3
      vertex 18.6281 -1.46946 3
    endloop
  endfacet
  facet normal 0 0 1
    outer loop
      vertex -7.83901 -17.6227 3
      vertex 18.6281 -1.46946 3
      vertex 18.273 -0.772542 3
    endloop
  endfacet
  facet normal 0 0 1
    outer loop
      vertex -7.83901 -17.6227 3
      vertex 18.273 -0.772542 3
      vertex 18.1506 0 3
    endloop
  endfacet
  facet normal -0 0 1
    outer loop
      vertex -8.46745 16.2111 3
      vertex 18.273 0.772542 3
      vertex -8.04145 16.8671 3
    endloop
  endfacet
  facet normal 0 0 1
    outer loop
      vertex 19.1812 -2.02254 3
      vertex -7.83901 -17.6227 3
      vertex -7.87995 -18.4038 3
    endloop
  endfacet
  facet normal 0 0 1
    outer loop
      vertex 19.8781 -2.37764 3
      vertex -7.87995 -18.4038 3
      vertex 23.8453 -41.3013 3
    endloop
  endfacet
  facet normal -0 0 1
    outer loop
      vertex -8.16025 -19.134 3
      vertex 23.8453 -41.3013 3
      vertex -7.87995 -18.4038 3
    endloop
  endfacet
  facet normal -0 0 1
    outer loop
      vertex -8.65249 -19.7418 3
      vertex 23.8453 -41.3013 3
      vertex -8.16025 -19.134 3
    endloop
  endfacet
  facet normal -0 0 1
    outer loop
      vertex -9.30848 -20.1678 3
      vertex 23.8453 -41.3013 3
      vertex -8.65249 -19.7418 3
    endloop
  endfacet
  facet normal 0 0 1
    outer loop
      vertex -23.8453 -41.3013 3
      vertex -9.30848 -20.1678 3
      vertex -10.064 -20.3703 3
    endloop
  endfacet
  facet normal 0 0 1
    outer loop
      vertex -23.8453 -41.3013 3
      vertex -10.064 -20.3703 3
      vertex -10.8451 -20.3293 3
    endloop
  endfacet
  facet normal 0 0 1
    outer loop
      vertex -23.8453 -41.3013 3
      vertex -10.8451 -20.3293 3
      vertex -11.5753 -20.049 3
    endloop
  endfacet
  facet normal 0 0 1
    outer loop
      vertex -9.30848 -20.1678 3
      vertex -23.8453 -41.3013 3
      vertex 23.8453 -41.3013 3
    endloop
  endfacet
  facet normal 0 0 1
    outer loop
      vertex -12.1832 -19.5568 3
      vertex -23.8453 -41.3013 3
      vertex -11.5753 -20.049 3
    endloop
  endfacet
  facet normal 0 0 1
    outer loop
      vertex -12.6092 -18.9008 3
      vertex -23.8453 -41.3013 3
      vertex -12.1832 -19.5568 3
    endloop
  endfacet
  facet normal 0 0 1
    outer loop
      vertex -12.8116 -18.1453 3
      vertex -23.8453 -41.3013 3
      vertex -12.6092 -18.9008 3
    endloop
  endfacet
  facet normal 0 0 1
    outer loop
      vertex -12.7707 -17.3642 3
      vertex -47.6906 0 3
      vertex -12.8116 -18.1453 3
    endloop
  endfacet
  facet normal 0 0 1
    outer loop
      vertex -12.8116 -18.1453 3
      vertex -47.6906 0 3
      vertex -23.8453 -41.3013 3
    endloop
  endfacet
  facet normal -0.866024 -0.500003 0
    outer loop
      vertex 26.1547 37.3013 58.1774
      vertex 24.9773 39.3406 63
      vertex 24.9773 39.3406 57
    endloop
  endfacet
  facet normal -0.866024 -0.500003 0
    outer loop
      vertex 24.9773 39.3406 63
      vertex 26.1547 37.3013 58.1774
      vertex 26.1547 37.3013 61.8226
    endloop
  endfacet
  facet normal -0.866027 -0.499996 0
    outer loop
      vertex 23.8453 41.3013 3
      vertex 24.9773 39.3406 57
      vertex 23.8453 41.3013 120
    endloop
  endfacet
  facet normal -0.866024 -0.500003 -3.19129e-07
    outer loop
      vertex 23.8453 41.3013 3
      vertex 26.1547 37.3013 57
      vertex 24.9773 39.3406 57
    endloop
  endfacet
  facet normal -0.866026 -0.5 0
    outer loop
      vertex 47.6906 0 3
      vertex 26.1547 37.3013 58.1774
      vertex 26.1547 37.3013 57
    endloop
  endfacet
  facet normal -0.866026 -0.5 0
    outer loop
      vertex 26.1547 37.3013 58.1774
      vertex 47.6906 0 3
      vertex 26.1547 37.3013 61.8226
    endloop
  endfacet
  facet normal -0.866026 -0.5 -0
    outer loop
      vertex 47.6906 0 120
      vertex 26.1547 37.3013 61.8226
      vertex 47.6906 0 3
    endloop
  endfacet
  facet normal -0.866026 -0.5 8.62814e-09
    outer loop
      vertex 47.6906 0 3
      vertex 26.1547 37.3013 57
      vertex 23.8453 41.3013 3
    endloop
  endfacet
  facet normal -0.866027 -0.499996 -0
    outer loop
      vertex 24.9773 39.3406 63
      vertex 23.8453 41.3013 120
      vertex 24.9773 39.3406 57
    endloop
  endfacet
  facet normal -0.866024 -0.500003 3.02333e-07
    outer loop
      vertex 26.1547 37.3013 63
      vertex 23.8453 41.3013 120
      vertex 24.9773 39.3406 63
    endloop
  endfacet
  facet normal -0.866026 -0.5 0
    outer loop
      vertex 26.1547 37.3013 61.8226
      vertex 47.6906 0 120
      vertex 26.1547 37.3013 63
    endloop
  endfacet
  facet normal -0.866026 -0.5 -8.17403e-09
    outer loop
      vertex 26.1547 37.3013 63
      vertex 47.6906 0 120
      vertex 23.8453 41.3013 120
    endloop
  endfacet
  facet normal -0.866024 0.500003 0
    outer loop
      vertex 24.9773 -39.3406 57
      vertex 26.1547 -37.3013 61.8226
      vertex 26.1547 -37.3013 58.1774
    endloop
  endfacet
  facet normal -0.866024 0.500003 0
    outer loop
      vertex 26.1547 -37.3013 61.8226
      vertex 24.9773 -39.3406 57
      vertex 24.9773 -39.3406 63
    endloop
  endfacet
  facet normal -0.866026 0.5 0
    outer loop
      vertex 26.1547 -37.3013 58.1774
      vertex 47.6906 0 3
      vertex 26.1547 -37.3013 57
    endloop
  endfacet
  facet normal -0.866026 0.5 8.62814e-09
    outer loop
      vertex 23.8453 -41.3013 3
      vertex 26.1547 -37.3013 57
      vertex 47.6906 0 3
    endloop
  endfacet
  facet normal -0.866027 0.499996 0
    outer loop
      vertex 24.9773 -39.3406 57
      vertex 23.8453 -41.3013 3
      vertex 24.9773 -39.3406 63
    endloop
  endfacet
  facet normal -0.866024 0.500003 -3.19129e-07
    outer loop
      vertex 26.1547 -37.3013 57
      vertex 23.8453 -41.3013 3
      vertex 24.9773 -39.3406 57
    endloop
  endfacet
  facet normal -0.866026 0.5 0
    outer loop
      vertex 26.1547 -37.3013 61.8226
      vertex 47.6906 0 3
      vertex 26.1547 -37.3013 58.1774
    endloop
  endfacet
  facet normal -0.866026 0.5 0
    outer loop
      vertex 47.6906 0 3
      vertex 26.1547 -37.3013 61.8226
      vertex 47.6906 0 120
    endloop
  endfacet
  facet normal -0.866026 0.5 0
    outer loop
      vertex 26.1547 -37.3013 63
      vertex 47.6906 0 120
      vertex 26.1547 -37.3013 61.8226
    endloop
  endfacet
  facet normal -0.866024 0.500003 3.02333e-07
    outer loop
      vertex 23.8453 -41.3013 120
      vertex 26.1547 -37.3013 63
      vertex 24.9773 -39.3406 63
    endloop
  endfacet
  facet normal -0.866026 0.5 -8.17403e-09
    outer loop
      vertex 26.1547 -37.3013 63
      vertex 23.8453 -41.3013 120
      vertex 47.6906 0 120
    endloop
  endfacet
  facet normal -0.866027 0.499996 0
    outer loop
      vertex 23.8453 -41.3013 120
      vertex 24.9773 -39.3406 63
      vertex 23.8453 -41.3013 3
    endloop
  endfacet
  facet normal 0.866031 0.49999 0
    outer loop
      vertex -45.3812 -4 61.8226
      vertex -46.5586 -1.96063 57
      vertex -46.5586 -1.96063 63
    endloop
  endfacet
  facet normal 0.866031 0.49999 0
    outer loop
      vertex -46.5586 -1.96063 57
      vertex -45.3812 -4 61.8226
      vertex -45.3812 -4 58.1774
    endloop
  endfacet
  facet normal 0.86602 0.50001 0
    outer loop
      vertex -47.6906 0 120
      vertex -46.5586 -1.96063 63
      vertex -47.6906 0 3
    endloop
  endfacet
  facet normal 0.866031 0.49999 9.02044e-07
    outer loop
      vertex -47.6906 0 120
      vertex -45.3812 -4 63
      vertex -46.5586 -1.96063 63
    endloop
  endfacet
  facet normal 0.866026 0.5 0
    outer loop
      vertex -23.8453 -41.3013 120
      vertex -45.3812 -4 61.8226
      vertex -45.3812 -4 63
    endloop
  endfacet
  facet normal 0.866026 0.5 0
    outer loop
      vertex -45.3812 -4 61.8226
      vertex -23.8453 -41.3013 3
      vertex -45.3812 -4 58.1774
    endloop
  endfacet
  facet normal 0.866026 0.5 0
    outer loop
      vertex -45.3812 -4 61.8226
      vertex -23.8453 -41.3013 120
      vertex -23.8453 -41.3013 3
    endloop
  endfacet
  facet normal 0.866026 0.5 8.17403e-09
    outer loop
      vertex -23.8453 -41.3013 120
      vertex -45.3812 -4 63
      vertex -47.6906 0 120
    endloop
  endfacet
  facet normal 0.86602 0.50001 -0
    outer loop
      vertex -46.5586 -1.96063 57
      vertex -47.6906 0 3
      vertex -46.5586 -1.96063 63
    endloop
  endfacet
  facet normal 0.866031 0.49999 -9.52158e-07
    outer loop
      vertex -45.3812 -4 57
      vertex -47.6906 0 3
      vertex -46.5586 -1.96063 57
    endloop
  endfacet
  facet normal 0.866026 0.5 0
    outer loop
      vertex -45.3812 -4 58.1774
      vertex -23.8453 -41.3013 3
      vertex -45.3812 -4 57
    endloop
  endfacet
  facet normal 0.866026 0.5 -8.62814e-09
    outer loop
      vertex -45.3812 -4 57
      vertex -23.8453 -41.3013 3
      vertex -47.6906 0 3
    endloop
  endfacet
  facet normal 0 1 0
    outer loop
      vertex 19.2265 -41.3013 63
      vertex 23.8453 -41.3013 120
      vertex 21.5814 -41.3013 63
    endloop
  endfacet
  facet normal 0 1 0
    outer loop
      vertex 21.5814 -41.3013 63
      vertex 19.2265 -41.3013 58.1774
      vertex 19.2265 -41.3013 61.8226
    endloop
  endfacet
  facet normal 0 1 0
    outer loop
      vertex 21.5814 -41.3013 63
      vertex 21.5814 -41.3013 57
      vertex 19.2265 -41.3013 58.1774
    endloop
  endfacet
  facet normal 0 1 0
    outer loop
      vertex 23.8453 -41.3013 120
      vertex 21.5814 -41.3013 57
      vertex 21.5814 -41.3013 63
    endloop
  endfacet
  facet normal 0 1 0
    outer loop
      vertex 21.5814 -41.3013 57
      vertex 23.8453 -41.3013 3
      vertex 19.2265 -41.3013 57
    endloop
  endfacet
  facet normal 0 1 -0
    outer loop
      vertex 23.8453 -41.3013 3
      vertex 21.5814 -41.3013 57
      vertex 23.8453 -41.3013 120
    endloop
  endfacet
  facet normal 0 1 0
    outer loop
      vertex 23.8453 -41.3013 120
      vertex 19.2265 -41.3013 63
      vertex -23.8453 -41.3013 120
    endloop
  endfacet
  facet normal 0 1 -0
    outer loop
      vertex 19.2265 -41.3013 61.8226
      vertex -23.8453 -41.3013 120
      vertex 19.2265 -41.3013 63
    endloop
  endfacet
  facet normal 0 1 0
    outer loop
      vertex -23.8453 -41.3013 3
      vertex 19.2265 -41.3013 61.8226
      vertex 19.2265 -41.3013 58.1774
    endloop
  endfacet
  facet normal 0 1 0
    outer loop
      vertex -23.8453 -41.3013 3
      vertex 19.2265 -41.3013 58.1774
      vertex 19.2265 -41.3013 57
    endloop
  endfacet
  facet normal 0 1 0
    outer loop
      vertex -23.8453 -41.3013 3
      vertex 19.2265 -41.3013 57
      vertex 23.8453 -41.3013 3
    endloop
  endfacet
  facet normal 0 1 0
    outer loop
      vertex 19.2265 -41.3013 61.8226
      vertex -23.8453 -41.3013 3
      vertex -23.8453 -41.3013 120
    endloop
  endfacet
  facet normal -0.5 -0.866025 0
    outer loop
      vertex 15.4365 34.7369 57
      vertex 22.3647 30.7369 63
      vertex 15.4365 34.7369 63
    endloop
  endfacet
  facet normal -0.5 -0.866025 -0
    outer loop
      vertex 22.3647 30.7369 63
      vertex 15.4365 34.7369 57
      vertex 22.3647 30.7369 57
    endloop
  endfacet
  facet normal 0 0 1
    outer loop
      vertex 24.9773 39.3406 63
      vertex 22.3647 30.7369 63
      vertex 26.1547 37.3013 63
    endloop
  endfacet
  facet normal 0 0 1
    outer loop
      vertex 21.5814 41.3013 63
      vertex 22.3647 30.7369 63
      vertex 24.9773 39.3406 63
    endloop
  endfacet
  facet normal 0 0 1
    outer loop
      vertex 15.4365 34.7369 63
      vertex 21.5814 41.3013 63
      vertex 19.2265 41.3013 63
    endloop
  endfacet
  facet normal 0 0 1
    outer loop
      vertex 21.5814 41.3013 63
      vertex 15.4365 34.7369 63
      vertex 22.3647 30.7369 63
    endloop
  endfacet
  facet normal 0 0 -1
    outer loop
      vertex 22.3647 30.7369 57
      vertex 24.9773 39.3406 57
      vertex 26.1547 37.3013 57
    endloop
  endfacet
  facet normal 0 0 -1
    outer loop
      vertex 22.3647 30.7369 57
      vertex 21.5814 41.3013 57
      vertex 24.9773 39.3406 57
    endloop
  endfacet
  facet normal 0 0 -1
    outer loop
      vertex 15.4365 34.7369 57
      vertex 21.5814 41.3013 57
      vertex 22.3647 30.7369 57
    endloop
  endfacet
  facet normal -0 0 -1
    outer loop
      vertex 21.5814 41.3013 57
      vertex 15.4365 34.7369 57
      vertex 19.2265 41.3013 57
    endloop
  endfacet
  facet normal 0.866023 -0.500004 0
    outer loop
      vertex 26.1547 37.3013 63
      vertex 25.2434 35.7229 60
      vertex 26.1547 37.3013 61.8226
    endloop
  endfacet
  facet normal 0.866023 -0.500004 -7.56383e-08
    outer loop
      vertex 25.2434 35.7229 60
      vertex 26.1547 37.3013 63
      vertex 22.3647 30.7369 63
    endloop
  endfacet
  facet normal 0.866023 -0.500004 0
    outer loop
      vertex 25.2434 35.7229 60
      vertex 26.1547 37.3013 57
      vertex 26.1547 37.3013 58.1774
    endloop
  endfacet
  facet normal 0.866023 -0.500004 0
    outer loop
      vertex 22.3647 30.7369 57
      vertex 25.2434 35.7229 60
      vertex 22.3647 30.7369 63
    endloop
  endfacet
  facet normal 0.866023 -0.500004 7.56383e-08
    outer loop
      vertex 25.2434 35.7229 60
      vertex 22.3647 30.7369 57
      vertex 26.1547 37.3013 57
    endloop
  endfacet
  facet normal -0.866023 0.500004 0
    outer loop
      vertex 19.2265 41.3013 57
      vertex 18.3152 39.7229 60
      vertex 19.2265 41.3013 58.1774
    endloop
  endfacet
  facet normal -0.866023 0.500004 -7.56383e-08
    outer loop
      vertex 18.3152 39.7229 60
      vertex 19.2265 41.3013 57
      vertex 15.4365 34.7369 57
    endloop
  endfacet
  facet normal -0.866023 0.500004 0
    outer loop
      vertex 18.3152 39.7229 60
      vertex 19.2265 41.3013 63
      vertex 19.2265 41.3013 61.8226
    endloop
  endfacet
  facet normal -0.866023 0.500004 0
    outer loop
      vertex 15.4365 34.7369 63
      vertex 18.3152 39.7229 60
      vertex 15.4365 34.7369 57
    endloop
  endfacet
  facet normal -0.866023 0.500004 7.56383e-08
    outer loop
      vertex 18.3152 39.7229 60
      vertex 15.4365 34.7369 63
      vertex 19.2265 41.3013 63
    endloop
  endfacet
  facet normal 0.353554 0.612376 -0.707104
    outer loop
      vertex 25.2434 35.7229 60
      vertex 24.9773 39.3406 63
      vertex 26.1547 37.3013 61.8226
    endloop
  endfacet
  facet normal 0.353567 0.612373 -0.707099
    outer loop
      vertex 25.2434 35.7229 60
      vertex 21.5814 41.3013 63
      vertex 24.9773 39.3406 63
    endloop
  endfacet
  facet normal 0.353551 0.612369 -0.707111
    outer loop
      vertex 18.3152 39.7229 60
      vertex 21.5814 41.3013 63
      vertex 25.2434 35.7229 60
    endloop
  endfacet
  facet normal 0.353537 0.612385 -0.707104
    outer loop
      vertex 21.5814 41.3013 63
      vertex 18.3152 39.7229 60
      vertex 19.2265 41.3013 61.8226
    endloop
  endfacet
  facet normal 0.353554 0.612376 0.707104
    outer loop
      vertex 24.9773 39.3406 57
      vertex 25.2434 35.7229 60
      vertex 26.1547 37.3013 58.1774
    endloop
  endfacet
  facet normal 0.353567 0.612373 0.707099
    outer loop
      vertex 21.5814 41.3013 57
      vertex 25.2434 35.7229 60
      vertex 24.9773 39.3406 57
    endloop
  endfacet
  facet normal 0.353537 0.612385 0.707104
    outer loop
      vertex 18.3152 39.7229 60
      vertex 21.5814 41.3013 57
      vertex 19.2265 41.3013 58.1774
    endloop
  endfacet
  facet normal 0.353551 0.612369 0.707111
    outer loop
      vertex 21.5814 41.3013 57
      vertex 18.3152 39.7229 60
      vertex 25.2434 35.7229 60
    endloop
  endfacet
  facet normal 1 -0 0
    outer loop
      vertex -37.8013 -4 63
      vertex -37.8013 4 57
      vertex -37.8013 4 63
    endloop
  endfacet
  facet normal 1 0 0
    outer loop
      vertex -37.8013 4 57
      vertex -37.8013 -4 63
      vertex -37.8013 -4 57
    endloop
  endfacet
  facet normal 0 0 1
    outer loop
      vertex -46.5586 1.96063 63
      vertex -37.8013 4 63
      vertex -45.3812 4 63
    endloop
  endfacet
  facet normal 0 0 1
    outer loop
      vertex -37.8013 4 63
      vertex -46.5586 1.96063 63
      vertex -37.8013 -4 63
    endloop
  endfacet
  facet normal -0 0 1
    outer loop
      vertex -46.5586 -1.96063 63
      vertex -37.8013 -4 63
      vertex -46.5586 1.96063 63
    endloop
  endfacet
  facet normal 0 0 1
    outer loop
      vertex -37.8013 -4 63
      vertex -46.5586 -1.96063 63
      vertex -45.3812 -4 63
    endloop
  endfacet
  facet normal 0 0 -1
    outer loop
      vertex -46.5586 -1.96063 57
      vertex -37.8013 -4 57
      vertex -45.3812 -4 57
    endloop
  endfacet
  facet normal 0 0 -1
    outer loop
      vertex -37.8013 -4 57
      vertex -46.5586 -1.96063 57
      vertex -37.8013 4 57
    endloop
  endfacet
  facet normal 0 0 -1
    outer loop
      vertex -46.5586 1.96063 57
      vertex -37.8013 4 57
      vertex -46.5586 -1.96063 57
    endloop
  endfacet
  facet normal -0 0 -1
    outer loop
      vertex -37.8013 4 57
      vertex -46.5586 1.96063 57
      vertex -45.3812 4 57
    endloop
  endfacet
  facet normal 0 1 -0
    outer loop
      vertex -43.5586 4 60
      vertex -45.3812 4 63
      vertex -37.8013 4 63
    endloop
  endfacet
  facet normal 0 1 0
    outer loop
      vertex -45.3812 4 63
      vertex -43.5586 4 60
      vertex -45.3812 4 61.8226
    endloop
  endfacet
  facet normal 0 1 -0
    outer loop
      vertex -37.8013 4 57
      vertex -43.5586 4 60
      vertex -37.8013 4 63
    endloop
  endfacet
  facet normal 0 1 0
    outer loop
      vertex -45.3812 4 57
      vertex -43.5586 4 60
      vertex -37.8013 4 57
    endloop
  endfacet
  facet normal 0 1 0
    outer loop
      vertex -43.5586 4 60
      vertex -45.3812 4 57
      vertex -45.3812 4 58.1774
    endloop
  endfacet
  facet normal 0 -1 0
    outer loop
      vertex -43.5586 -4 60
      vertex -45.3812 -4 63
      vertex -45.3812 -4 61.8226
    endloop
  endfacet
  facet normal 0 -1 0
    outer loop
      vertex -45.3812 -4 63
      vertex -43.5586 -4 60
      vertex -37.8013 -4 63
    endloop
  endfacet
  facet normal 0 -1 0
    outer loop
      vertex -45.3812 -4 57
      vertex -43.5586 -4 60
      vertex -45.3812 -4 58.1774
    endloop
  endfacet
  facet normal 0 -1 -0
    outer loop
      vertex -43.5586 -4 60
      vertex -45.3812 -4 57
      vertex -37.8013 -4 57
    endloop
  endfacet
  facet normal 0 -1 0
    outer loop
      vertex -43.5586 -4 60
      vertex -37.8013 -4 57
      vertex -37.8013 -4 63
    endloop
  endfacet
  facet normal -0.707107 0 -0.707107
    outer loop
      vertex -43.5586 4 60
      vertex -46.5586 1.96063 63
      vertex -45.3812 4 61.8226
    endloop
  endfacet
  facet normal -0.707107 0 -0.707107
    outer loop
      vertex -43.5586 4 60
      vertex -46.5586 -1.96063 63
      vertex -46.5586 1.96063 63
    endloop
  endfacet
  facet normal -0.707107 0 -0.707107
    outer loop
      vertex -43.5586 -4 60
      vertex -46.5586 -1.96063 63
      vertex -43.5586 4 60
    endloop
  endfacet
  facet normal -0.707107 0 -0.707107
    outer loop
      vertex -46.5586 -1.96063 63
      vertex -43.5586 -4 60
      vertex -45.3812 -4 61.8226
    endloop
  endfacet
  facet normal -0.707107 0 0.707107
    outer loop
      vertex -46.5586 1.96063 57
      vertex -43.5586 4 60
      vertex -45.3812 4 58.1774
    endloop
  endfacet
  facet normal -0.707107 0 0.707107
    outer loop
      vertex -46.5586 -1.96063 57
      vertex -43.5586 4 60
      vertex -46.5586 1.96063 57
    endloop
  endfacet
  facet normal -0.707107 0 0.707107
    outer loop
      vertex -43.5586 -4 60
      vertex -46.5586 -1.96063 57
      vertex -45.3812 -4 58.1774
    endloop
  endfacet
  facet normal -0.707107 0 0.707107
    outer loop
      vertex -46.5586 -1.96063 57
      vertex -43.5586 -4 60
      vertex -43.5586 4 60
    endloop
  endfacet
  facet normal -0.5 0.866025 0
    outer loop
      vertex 22.3647 -30.7369 57
      vertex 15.4365 -34.7369 63
      vertex 22.3647 -30.7369 63
    endloop
  endfacet
  facet normal -0.5 0.866025 0
    outer loop
      vertex 15.4365 -34.7369 63
      vertex 22.3647 -30.7369 57
      vertex 15.4365 -34.7369 57
    endloop
  endfacet
  facet normal 0 0 1
    outer loop
      vertex 22.3647 -30.7369 63
      vertex 24.9773 -39.3406 63
      vertex 26.1547 -37.3013 63
    endloop
  endfacet
  facet normal 0 0 1
    outer loop
      vertex 22.3647 -30.7369 63
      vertex 21.5814 -41.3013 63
      vertex 24.9773 -39.3406 63
    endloop
  endfacet
  facet normal -0 0 1
    outer loop
      vertex 15.4365 -34.7369 63
      vertex 21.5814 -41.3013 63
      vertex 22.3647 -30.7369 63
    endloop
  endfacet
  facet normal 0 0 1
    outer loop
      vertex 21.5814 -41.3013 63
      vertex 15.4365 -34.7369 63
      vertex 19.2265 -41.3013 63
    endloop
  endfacet
  facet normal 0 0 -1
    outer loop
      vertex 24.9773 -39.3406 57
      vertex 22.3647 -30.7369 57
      vertex 26.1547 -37.3013 57
    endloop
  endfacet
  facet normal 0 0 -1
    outer loop
      vertex 21.5814 -41.3013 57
      vertex 22.3647 -30.7369 57
      vertex 24.9773 -39.3406 57
    endloop
  endfacet
  facet normal 0 0 -1
    outer loop
      vertex 15.4365 -34.7369 57
      vertex 21.5814 -41.3013 57
      vertex 19.2265 -41.3013 57
    endloop
  endfacet
  facet normal 0 0 -1
    outer loop
      vertex 21.5814 -41.3013 57
      vertex 15.4365 -34.7369 57
      vertex 22.3647 -30.7369 57
    endloop
  endfacet
  facet normal -0.866023 -0.500004 0
    outer loop
      vertex 15.4365 -34.7369 57
      vertex 18.3152 -39.7229 60
      vertex 15.4365 -34.7369 63
    endloop
  endfacet
  facet normal -0.866023 -0.500004 -7.56383e-08
    outer loop
      vertex 19.2265 -41.3013 57
      vertex 18.3152 -39.7229 60
      vertex 15.4365 -34.7369 57
    endloop
  endfacet
  facet normal -0.866023 -0.500004 0
    outer loop
      vertex 18.3152 -39.7229 60
      vertex 19.2265 -41.3013 57
      vertex 19.2265 -41.3013 58.1774
    endloop
  endfacet
  facet normal -0.866023 -0.500004 -0
    outer loop
      vertex 19.2265 -41.3013 63
      vertex 18.3152 -39.7229 60
      vertex 19.2265 -41.3013 61.8226
    endloop
  endfacet
  facet normal -0.866023 -0.500004 7.56383e-08
    outer loop
      vertex 18.3152 -39.7229 60
      vertex 19.2265 -41.3013 63
      vertex 15.4365 -34.7369 63
    endloop
  endfacet
  facet normal 0.866023 0.500004 0
    outer loop
      vertex 22.3647 -30.7369 63
      vertex 25.2434 -35.7229 60
      vertex 22.3647 -30.7369 57
    endloop
  endfacet
  facet normal 0.866023 0.500004 -7.56383e-08
    outer loop
      vertex 26.1547 -37.3013 63
      vertex 25.2434 -35.7229 60
      vertex 22.3647 -30.7369 63
    endloop
  endfacet
  facet normal 0.866023 0.500004 0
    outer loop
      vertex 25.2434 -35.7229 60
      vertex 26.1547 -37.3013 63
      vertex 26.1547 -37.3013 61.8226
    endloop
  endfacet
  facet normal 0.866023 0.500004 -0
    outer loop
      vertex 26.1547 -37.3013 57
      vertex 25.2434 -35.7229 60
      vertex 26.1547 -37.3013 58.1774
    endloop
  endfacet
  facet normal 0.866023 0.500004 7.56383e-08
    outer loop
      vertex 25.2434 -35.7229 60
      vertex 26.1547 -37.3013 57
      vertex 22.3647 -30.7369 57
    endloop
  endfacet
  facet normal 0.353554 -0.612376 -0.707104
    outer loop
      vertex 24.9773 -39.3406 63
      vertex 25.2434 -35.7229 60
      vertex 26.1547 -37.3013 61.8226
    endloop
  endfacet
  facet normal 0.353567 -0.612373 -0.707099
    outer loop
      vertex 21.5814 -41.3013 63
      vertex 25.2434 -35.7229 60
      vertex 24.9773 -39.3406 63
    endloop
  endfacet
  facet normal 0.353537 -0.612385 -0.707104
    outer loop
      vertex 18.3152 -39.7229 60
      vertex 21.5814 -41.3013 63
      vertex 19.2265 -41.3013 61.8226
    endloop
  endfacet
  facet normal 0.353551 -0.612369 -0.707111
    outer loop
      vertex 21.5814 -41.3013 63
      vertex 18.3152 -39.7229 60
      vertex 25.2434 -35.7229 60
    endloop
  endfacet
  facet normal 0.353554 -0.612376 0.707104
    outer loop
      vertex 25.2434 -35.7229 60
      vertex 24.9773 -39.3406 57
      vertex 26.1547 -37.3013 58.1774
    endloop
  endfacet
  facet normal 0.353567 -0.612373 0.707099
    outer loop
      vertex 25.2434 -35.7229 60
      vertex 21.5814 -41.3013 57
      vertex 24.9773 -39.3406 57
    endloop
  endfacet
  facet normal 0.353551 -0.612369 0.707111
    outer loop
      vertex 18.3152 -39.7229 60
      vertex 21.5814 -41.3013 57
      vertex 25.2434 -35.7229 60
    endloop
  endfacet
  facet normal 0.353537 -0.612385 0.707104
    outer loop
      vertex 21.5814 -41.3013 57
      vertex 18.3152 -39.7229 60
      vertex 19.2265 -41.3013 58.1774
    endloop
  endfacet
endsolid OpenSCAD_Model
